/* XPM */
static char *result[] = {
/* columns rows colors chars-per-pixel */
"64 64 43 1 ",
"  c #1F1F1E",
". c #20201F",
"X c #252524",
"o c #282827",
"O c #2D2D2C",
"+ c #30302F",
"@ c #333332",
"# c #383837",
"$ c #3D3D3C",
"% c #40403F",
"& c #444444",
"* c #484847",
"= c #4B4B4A",
"- c #545454",
"; c #585857",
": c #5C5C5B",
"> c #636363",
", c #6D6D6C",
"< c #70706F",
"1 c #737372",
"2 c #7B7B7B",
"3 c #80807F",
"4 c #828282",
"5 c #888887",
"6 c #8D8D8D",
"7 c #949494",
"8 c #989897",
"9 c #9C9C9C",
"0 c #A0A09F",
"q c #A3A3A3",
"w c #A8A8A7",
"e c #ABABAB",
"r c #B4B4B4",
"t c #BBBBBB",
"y c #BFBFC0",
"u c #C5C5C5",
"i c #C8C8C7",
"p c #CBCBCB",
"a c #D4D4D4",
"s c #DCDCDC",
"d c #E3E3E3",
"f c #EBEBEB",
"g c None",
/* pixels */
"gggggggggggggggggggggggggggggggggggggggggggggggggggggggggggggggg",
"gggggggggggggggggggggggggggggggggggggggggggggggggggggggggggggggg",
"gggggggggggggggggggggggggggggggggggggggggggggggggggggggggggggggg",
"gggggggggggggggggggggggggggggggggggggggggggggggggggggggggggggggg",
"gggggggggggggggggggggggggggggggggggggggggggggggggggggggggggggggg",
"gggggggggggggggggggggggggggggggggggggggggggggggggggggggggggggggg",
"gggggggggggggggggggggggggggggggggggggggggggggggggggggggggggggggg",
"gggggggggggggggggggggggggggggggggggggggggggggggggggggggggggggggg",
"ggggggggggggggggggggggggggggggggg+OOoooggggggggggOO@@OOggggggggg",
"ggggggggggggggggggggggggggggggggO++OO@@@ggggggggO@OOOO@+gggggggg",
"ggggggggggggggggggggggggggggggggOO@#$$&$ggggggggO+++O+O+gggggggg",
"ggggggggggggggggggggggggggggggggOO#%=;;;=ggggggooooOOO++gggggggg",
"gggggggggggggXXoOOOgggggggggggggo@#->12,;#X .XXXoooOOOOOgggggggg",
"gggggggggggg+++@O+++ggggggggggggo+%;2782>%@OOO+O@@++OO++gggggggg",
"gggggggggggg&&&$#@OOggggggggggggo+&>4qq71;&&&&==**&$#@OOgggggggg",
"ggggggggggg;>,>;&#+OggggggggggggX@&:5weq52,,,11111>;&#Oogggggggg",
"ggggggggg+&>4761;$+oggggggggggggo+&>5qrre09900qww061-#OXgggggggg",
"ggggggggX+*,9rr6,&+Xggggggggggggo+%:4qryuupppiippir6>&+ogggggggg",
"ggggggggX+*<quuq<*+Xggggggggggggo+%:40tpassappppsai02-%#gggggggg",
"ggggggggX+*1qppw1=+Xggggggggggggo+%:4qypsssptewrupue6<:-*ggggggg",
"ggggggggX+*1qppq1*+Xggggggggggggo+%:40ypssar7426qtyr062>-$+ggggg",
"ggggggggX+*1qiuq1*+Xggggggggggggo+&:40tpsspw3:;<6ertrq72:&+ogggg",
"ggggggggX+*10iuq1*+Xggggggggggggo+%:3qypaspw2:;,6etuutq5:&+ogggg",
"ggggggggX+*<quuq1*+Xggggggggggggo+&:3qtpssar72250tupppr6>&+ogggg",
"ggggggggX+*1quuq1*+XggggggggggggX+%:4qypassirqqetpassay7,&+Xgggg",
"ggggggggX@&1quuq<*+Xggggggggggggo+%:4qtpasssapppaassdau9,&+Xgggg",
"ggggggggX+*1quuq1&OXggggggggggggo+%:4qruaaasssasasssssu7,&+Xgggg",
"ggggggggX+*1qppq1&O. gggggggggg Xo$:30rupppaaaaaaaaasay7>*+ogggg",
"ggggggggX+*1wppw1&o..XXXXXXXXXXXXo$;30ryyuuiiiiiuuupppr6>&@Xgggg",
"ggggggggX+*1quuq1&+oOO+@+++++++Oo+%>4qryttrytttttttyytw5:&+ogggg",
"ggggggggX+&<8rr92;*&&&*&&*&*&*&&&*;16etyytttttttttrrew72:&+Xgggg",
"ggggggggg+&>388742<,,,,<,<<,,<,,,<26qyyuiyuuyuuuuuye962>-$@ggggg",
"ggggggggggg;>,13680099999999999999qrypaapapppaaaaayq4,:=*ggggggg",
"gggggggggggg$*;28rupppppuuppuuppupppaaassssssssssayq2;%$gggggggg",
"ggggggggggggX+*,9pdfdssssssssssssdsdsddsdssdsdsddsp9,=+Xgggggggg",
"gggggggggggg o%,9pffffffffdfdfdffddfdfdddddddddffdu9,%O gggggggg",
"gggggggggggg o*,9pdffffffdddfddffdfdffddddsddddffsu9,%O.gggggggg",
"ggggggggggggX+*,9psffssdsddddsdssdssdssddddsssddddp9,*+Xgggggggg",
"ggggggggggggX+*,9pssappasssdsdssddsspppaasdssssddsp9,*+Xgggggggg",
"ggggggggggggX+*<9paateqrpsdffdfffdspreerpasdsaasdsu9,*+Xgggggggg",
"ggggggggggggo+*<0pat8448rafffffffdsr7337rassappsssu9,*+Xgggggggg",
"ggggggggggggX+*10upe2::2qpsddssddspq2::2qpsapyypasp9,*+Xgggggggg",
"ggggggggggggX+*<9yy9,*&>6ripppipppr5>**,9papyeeypsp9<*+Xgggggggg",
"ggggggggggggo+&,9yy7>%#=<60qq000q96,=$%,qpauw66qyapq1*+Xgggggggg",
"ggggggggggggX+&,7rr6>%@%-><<1<<1,,>-$@%1qpar6116tapq1*+Xgggggggg",
"ggggggggggggo+%>5qe5>&@@#&****&***%#@+*1quie2;;2qpu01*+Xgggggggg",
"ggggggggggggo+%;2674>%+OOO++++@++++OO+%,7rr7,==,8rr6>*+ogggggggg",
"ggggggggggggo+$=>22<;%OooOoooooooXXXo+%;2564:%%:4662;$+Ogggggggg",
"gggggggggggg+O@%=;;;=ggoOoOoOooooggoo+#&;>,>-gg->,>;*#+Ogggggggg",
"gggggggggggg+++#$$&&ggggOOO+OO++ggggOO@#$&&&gggg&&&$#+OOgggggggg",
"ggggggggggggO+++@OO@ggggO+@O@OO+gggg@OO@@O@Ogggg++++O+++gggggggg",
"ggggggggggggg+OOOoXgggggg+O+OO@ggggggOOOooXggggggXooO++ggggggggg",
"gggggggggggggggggggggggggggggggggggggggggggggggggggggggggggggggg",
"gggggggggggggggggggggggggggggggggggggggggggggggggggggggggggggggg",
"gggggggggggggggggggggggggggggggggggggggggggggggggggggggggggggggg",
"gggggggggggggggggggggggggggggggggggggggggggggggggggggggggggggggg",
"gggggggggggggggggggggggggggggggggggggggggggggggggggggggggggggggg",
"gggggggggggggggggggggggggggggggggggggggggggggggggggggggggggggggg",
"gggggggggggggggggggggggggggggggggggggggggggggggggggggggggggggggg",
"gggggggggggggggggggggggggggggggggggggggggggggggggggggggggggggggg",
"gggggggggggggggggggggggggggggggggggggggggggggggggggggggggggggggg",
"gggggggggggggggggggggggggggggggggggggggggggggggggggggggggggggggg",
"gggggggggggggggggggggggggggggggggggggggggggggggggggggggggggggggg",
"gggggggggggggggggggggggggggggggggggggggggggggggggggggggggggggggg"
};
