/* XPM */
static char *result[] = {
/* columns rows colors chars-per-pixel */
"64 64 50 1 ",
"  c #1F1F1D",
". c #20201F",
"X c #252524",
"o c #282827",
"O c #2D2D2C",
"+ c #30302F",
"@ c #333332",
"# c #383837",
"$ c #3B3B3A",
"% c #40403F",
"& c #444443",
"* c #484847",
"= c #4C4C4B",
"- c #50504F",
"; c #545453",
": c #585857",
"> c #5C5C5B",
", c #60605F",
"< c #646464",
"1 c #686867",
"2 c #6B6B6B",
"3 c #70706F",
"4 c #747473",
"5 c #787877",
"6 c #7B7B7B",
"7 c #80807F",
"8 c #848483",
"9 c #888887",
"0 c #8C8C8B",
"q c #90908F",
"w c #949494",
"e c #989897",
"r c #9C9C9C",
"t c #A0A09F",
"y c #A4A4A4",
"u c #A8A8A7",
"i c #ACACAB",
"p c #B0B0AF",
"a c #B4B4B3",
"s c #BCBCBC",
"d c #C0C0BF",
"f c #C3C3C3",
"g c #CCCCCC",
"h c #CFCFD0",
"j c #D4D4D4",
"k c #DBDBDB",
"l c #E4E4E4",
"z c #E7E7E8",
"x c #EBEBEB",
"c c None",
/* pixels */
"cccccccccccccccccccccccccccccccccccccccccccccccccccccccccccccccc",
"cccccccccccccccccccccccccccccccccccccccccccccccccccccccccccccccc",
"cccccccccccccccccccccccccccccccccccccccccccccccccccccccccccccccc",
"cccccccccccccccccccccccccccccccccccccccccccccccccccccccccccccccc",
"cccccccccccccccccccccccccccccccccccccccccccccccccccccccccccccccc",
"cccccccccccccccccccccccccccccccccccccccccccccccccccccccccccccccc",
"cccccccccccccccccccccccccccccccccccccccccccccccccccccccccccccccc",
"cccccccccccccccccccccccccccccccccccccccccccccccccccccccccccccccc",
"cccccccccccccccccccccccccccccccccccccccccooOccccccccccooOccccccc",
"cccccccccccccccccccccccccccccccccccccccooOo@O+ccccccOoOoO@Occccc",
"cccccccccccccccccccccccccccccccccccccc@#@@@@+OOcccc##@@@+O++cccc",
"cccccccccccccccccccccccccccccccccccccc&*&&$#@Oocccc**&&$#+OOcccc",
"ccccccccccccccccccccccccccccccccccccc&;>>:*$@XX X@*>1<:=$@OOcccc",
"cccccccccccccccccccccccccccccccccccX#=1664<&@oX X$:4784>&#Oocccc",
"cccccccccccccccccccccccccccccccccco@$:40r04:$@oX@$:6qw92=$Oocccc",
"cccccccccccccccccccccccccccccccccc$$=18riy02:&&&&;27ww92-#Occccc",
"ccccccccccccccccccccccccccccccccc&-:16epdau063232446875<-#cccccc",
"ccccccccccXXo+O+ccccccccccccccc+%-<48eidggdautttrw962<:-*ccccccc",
"ccccccccc+O++O+++ccccccccccccco+%:40tafhjjjgfffffar4,*%$cccccccc",
"cccccccc%%%$##++Occccccccccccco+%:5eadhjkkjhhhjjjfy7>&#@cccccccc",
"cccccccc:,<>-%@+Occccccccccccco+%>6tagjkkjgsaafgjfi01:=%cccccccc",
"cccccc@-18971-$+occccccccccccco+%>6tagkkkhar09raffar84<;*$cccccc",
"cccccX#:6tit7>%Ooccccccccccccco+%:6rsgjkjft6<16epsaitq6<=#Occccc",
"ccccO#&<9ispq1&+Xccccccccccccco+%>6rafkkjse2::10uaddauq3=$+Xcccc",
"cccc=;,39tiy9<&+cccccccccccccco+%>6rafjkjft61<4eisggfar4;$OXcccc",
"cc%:147800074>&ccccccccccccccco+%>6ragjkkhar99ridgjjjfy6;#OXcccc",
"XO&>7eyr04<:;=cccccccccccccccco+%:6ragjkkjgsaasfhjkkkgu6:$OXcccc",
"XO&1qadpq1-%$ccccccccccccccccco+%>6rafhjkkjjjhjjkkklkgu8:$oXcccc",
"X+%1wsjft5>=%ccccccccccccccccXXO%>6rafhhjkkkkkjkjkkkkgi8:$oXcccc",
"XO&1wfkjse72,=ccccccccccccccX.XO$;5eadfgghhhjjjhjhjkjfu6:$OXcccc",
"XO&1wdkkhduw6>$XXXXXXXXXXXXXXXXo$;6rasddffffffffffgggst4;$OXcccc",
"X@&<qsjlkjfi0<&+ooO@@+@+@@+@OOo+&>6rassssssssdsssssdspw4=#OXcccc",
"XO&<9ifghhfpq4:&&%&&&&*&&&&&&&&&;30uafssssssssssssaair91-#Occccc",
"X+$>6qtyuiyr0722112221222222211250taffffdddddfffdsatw84>=#Occccc",
"ccc;<246666790wwwwwwwwwwwwwwwwwrrusfghhhhghhhghhhduq41:-&ccccccc",
"cccc*==**=;18rasfffddddddddddssffghhjkkkkjkkkkkkjgu7<=%$cccccccc",
"cccc#@#@+O$;6yfkklkkkkkkkkkkkkkkkkkklkklklkklkzzkhy5;$+Xcccccccc",
"cccccoXXXX@=6uhlxxllzzzzzzlllllllzzllllllklllzxxkhu5=@Xccccccccc",
"ccccccc. X+=4uglxxlzzxxxxzzzllllzzzzllllllllzxxxzhu4=@Xccccccccc",
"cccccccc X#=6yglzzllllzlzllllllllllllllklklllzxzzhy4-@Xccccccccc",
"ccccccccXo#;5yglzllkkkkjjkklkllkkkkkkjkklkkkjkkkjfy4=#occccccccc",
"cccccccccX@=4yglxzlkjgdsfgkklzllkjgdsfhkkkhfssassuw2-#occccccccc",
"cccccccccX@=6ujlxxzkfatetahkzxxzkgpreudhkhsuw0000961=#cccccccccc",
"cccccccccX@=4yglxxzkse647rdkzxxzhaw549ufkgu02>>>,<>;cccccccccccc",
"ccccccccXo$;5ygkzzlgi8>;<8ihkllkgt5>;1wsgsr4;%$%%$&ccccccccccccc",
"cccccccc$&*,5wafjkjgy6-%=2wafggfi0<*%;6taiw4;*$#@OOccccccccccccc",
"ccccccc*;>1369wtafgsy4=#%:40rrre93;$#&,60w085<;%#oXccccccccccccc",
"cccccc$=14986436qusar4=#$&:21442<;&@+$*>260er04;$oXccccccccccccc",
"cccccO#-29ww61::4wyuw4=#@@$*&*=&&$#@@@#$=19ysi91&Ooccccccccccccc",
"cccco+#=29ww4:&&>6we91*@OOO@@#@@@@O@OOoO$:7yaiq2&@Xccccccccccccc",
"ccccoO#&>4861-#$;2662:&@OoXXXXXXooOOOoXXO;4wrw6>$@occccccccccccc",
"ccccoO@$=:<<>*@#&:<>:*$@Ooocccccccccccccc&<454>=$@Occccccccccccc",
"ccccOO@#$&&**cccc&*&&$@@OOcccccccccccccccc=;==&$#OOccccccccccccc",
"cccc++O@@@#@#cccc##@@@OO++ccccccccccccccccc###@@@O+ccccccccccccc",
"cccccO+OOooOccccccoOoOO@+ccccccccccccccccccXoOoOOOcccccccccccccc",
"cccccccOooccccccccccooOcccccccccccccccccccccccoOcccccccccccccccc",
"cccccccccccccccccccccccccccccccccccccccccccccccccccccccccccccccc",
"cccccccccccccccccccccccccccccccccccccccccccccccccccccccccccccccc",
"cccccccccccccccccccccccccccccccccccccccccccccccccccccccccccccccc",
"cccccccccccccccccccccccccccccccccccccccccccccccccccccccccccccccc",
"cccccccccccccccccccccccccccccccccccccccccccccccccccccccccccccccc",
"cccccccccccccccccccccccccccccccccccccccccccccccccccccccccccccccc",
"cccccccccccccccccccccccccccccccccccccccccccccccccccccccccccccccc",
"cccccccccccccccccccccccccccccccccccccccccccccccccccccccccccccccc"
};
