/* XPM */
static char *result[] = {
/* columns rows colors chars-per-pixel */
"64 64 43 1 ",
"  c #1F1F1E",
". c #20201F",
"X c #262625",
"o c #282826",
"O c #2D2D2C",
"+ c #30302F",
"@ c #323232",
"# c #383837",
"$ c #3D3D3C",
"% c #40403F",
"& c #444444",
"* c #484847",
"= c #4B4B4A",
"- c #545454",
"; c #585857",
": c #5C5C5B",
"> c #636363",
", c #6D6D6C",
"< c #70706F",
"1 c #737372",
"2 c #7B7B7B",
"3 c #80807F",
"4 c #828282",
"5 c #888887",
"6 c #8D8D8D",
"7 c #949494",
"8 c #989897",
"9 c #9C9C9C",
"0 c #A0A09F",
"q c #A3A3A3",
"w c #A8A8A7",
"e c #ABABAB",
"r c #B4B4B4",
"t c #BBBBBB",
"y c #BFBFC0",
"u c #C5C5C5",
"i c #C8C8C7",
"p c #CBCBCB",
"a c #D4D4D4",
"s c #DCDCDC",
"d c #E3E3E3",
"f c #EBEBEB",
"g c None",
/* pixels */
"gggggggggggggggggggggggggggggggggggggggggggggggggggggggggggggggg",
"gggggggggggggggggggggggggggggggggggggggggggggggggggggggggggggggg",
"gggggggggggggggggggggggggggggggggggggggggggggggggggggggggggggggg",
"gggggggggggggggggggggggggggggggggggggggggggggggggggggggggggggggg",
"gggggggggggggggggggggggggggggggggggggggggggggggggggggggggggggggg",
"gggggggggggggggggggggggggggggggggggggggggggggggggggggggggggggggg",
"gggggggggggggggggggggggggggggggggggggggggggggggggggggggggggggggg",
"gggggggggggggggggggggggggggggggggggggggggggggggggggggggggggggggg",
"gggggggggggggggggggggggggggggggggggggggggggggggggggggggggggggggg",
"gggggggggggggggggggggggggggggggggggggggggggggggggggggggggggggggg",
"gggggggggggggggggggggggggggggggggggggggggggggggggggggggggggggggg",
"gggggggggggggggggggggggggggggggggggggggggggggggggggggggggggggggg",
"ggggggggg+OOoXXggggggXXoO++ggggggO+O++OggggggXooO++ggggggggggggg",
"ggggggggOO+O@@+Ogggg++@+++++gggg+O+O+++OggggO@@@+OOOgggggggggggg",
"gggggggg+O@#$&*&gggg**&%#@OOggggOOO@OO+Ogggg&&$$#@@Ogggggggggggg",
"ggggggggO+#*->,>-gg->>>;*#+oXggXoOOoOoOoogg-;;-=$#OOgggggggggggg",
"ggggggggo@$;2664>%&>2662;$OoXXXXoooooooXXO%;,21>=#Oogggggggggggg",
"ggggggggX+*>6rr8,**,8rr7,&@oO@@@@O@@@+@OO@%>3772:&@ogggggggggggg",
"ggggggggX+*<quiw2;;2wiu01*@@#********&%$@@&>6qw5>%@Xgggggggggggg",
"ggggggggX+*1qpar6<<6rapq<&@$=>,<1,<<1<>-%@&>6rr7,*@Xgggggggggggg",
"ggggggggX+*1qpauw66quai0,%$=,69qq9qqq06<=#%>8ty8,*+Xgggggggggggg",
"ggggggggX+*<0iaayeeypsi0,=&>6ruppiippir6>&*<0yy0,*+Xgggggggggggg",
"ggggggggX+*<9isapyypaspq2:;2qiddddsdddp02:>2wiiq<*+Xgggggggggggg",
"ggggggggXO*<9isssppassar7337yadffdfffdat7339tai0<*+Xgggggggggggg",
"ggggggggX+*,9isdsaassssirwwrpsdddddfddsprewtpai0,*+Xgggggggggggg",
"ggggggggX+*,9isddsssdssaaipaasddddsdddsaappassi9,*+Xgggggggggggg",
"ggggggggXO*,9udddsddsdsddddsddddddddsddddssffdi9,*@Xgggggggggggg",
"gggggggg.O&,9udddddddddddfddfddddddddfddffffffp9,*o.gggggggggggg",
"gggggggg.o&,9udfdddddddddddddddddffdfdfdffffffp9,&X gggggggggggg",
"ggggggggX@*<9usfddsddssddddsddsdsssdsdsddssffsi9,*+Xgggggggggggg",
"gggggggg#&-1qussdsssssassssaaiiipuuuuuupiiippur91;*$gggggggggggg",
"ggggggg*-:,5qypaaapppaapapiyrq99999999999999q99641,>-ggggggggggg",
"gggggO$-,258wtyyuuuyyyyuuyyq62,,,,,,,,,,<,,,,<236773>&@ggggggggg",
"ggggo@%;27wrrtyyttttyyyyyyq7,;=%&***=***&**&%*;20tr8,*@Xgggggggg",
"ggggX@&>4qtyyyyttyytytyyyrq4>%@OOOO@OOO@++OOo@*1quiq1*OXgggggggg",
"ggggX@%>6rppiuuyuuuiuyyyyr03:$O..XXXXXXXXXX .o&1wppq<*+Xgggggggg",
"ggggX+&,7yassapaaaaaappuyr93:$O.XggggggggggX.O&1qppq1*+Xgggggggg",
"ggggX+&,9usssssssassssaapyq3>%OXggggggggggggXO*1qiiq1*@Xgggggggg",
"ggggX@&,8yssssappipasssayyq3:%@XggggggggggggX@*<qui0<*@Xgggggggg",
"ggggX+&,7yassapyrqqrussapyq3:%OXggggggggggggXO*1quuq1*OXgggggggg",
"ggggX+&>6rpapyrq4227rasspy03:%@XggggggggggggX@*<0ii01*OXgggggggg",
"ggggo@%>5qyyyye6,-:3wpsaptq3>%@ogggggggggggg.@*<quiq1*+Xgggggggg",
"ggggX+%:28qryre6<;:2wisspyq3:%@XggggggggggggX@*1qiiq1*+Xgggggggg",
"ggggg+%->260ryyq6238tasspyq3:%@XggggggggggggX@*1qpiq1*+Xgggggggg",
"ggggggg*-:,6eupurwwtpssspyq3>%+Oggggggggggggo@*1wppq1*+Xgggggggg",
"gggggggg#%;10uasaipasssaptq3:%+XggggggggggggX@*<quuq<*+Xgggggggg",
"ggggggggo@&>6rippuiiiuuuyrq3:%+Xggggggggggggo@%,6rr8<*@Xgggggggg",
"gggggggg.O$;160qqq00990wrrq4>&+Xggggggggggggo@$;1674>*+ggggggggg",
"ggggggggXO@*->11111,,,260ew5>$+XggggggggggggO+#*;>,>;ggggggggggg",
"ggggggggO@@#$&******&*-16wq4>&+XggggggggggggOO@#$&**gggggggggggg",
"gggggggg++O+++@+@OOOo@&>3772:%@XggggggggggggOO++++++gggggggggggg",
"ggggggggO+OOOOoXXXXX X#-,21>=$@Xggggggggggggg+OOoXXggggggggggggg",
"ggggggggOOOOOOoXogggggg*;:;=&@+Ogggggggggggggggggggggggggggggggg",
"gggggggg@@O@OO++gggggggg%%%##@+Ogggggggggggggggggggggggggggggggg",
"ggggggggO++OO@++ggggggggO@@+++++gggggggggggggggggggggggggggggggg",
"ggggggggg+O@OO+ggggggggggoXOOO+ggggggggggggggggggggggggggggggggg",
"gggggggggggggggggggggggggggggggggggggggggggggggggggggggggggggggg",
"gggggggggggggggggggggggggggggggggggggggggggggggggggggggggggggggg",
"gggggggggggggggggggggggggggggggggggggggggggggggggggggggggggggggg",
"gggggggggggggggggggggggggggggggggggggggggggggggggggggggggggggggg",
"gggggggggggggggggggggggggggggggggggggggggggggggggggggggggggggggg",
"gggggggggggggggggggggggggggggggggggggggggggggggggggggggggggggggg",
"gggggggggggggggggggggggggggggggggggggggggggggggggggggggggggggggg",
"gggggggggggggggggggggggggggggggggggggggggggggggggggggggggggggggg"
};
