/* XPM */
static char *result[] = {
/* columns rows colors chars-per-pixel */
"64 64 75 1 ",
"  c #010101",
". c gray6",
"X c #151515",
"o c #1E1E1E",
"O c #232323",
"+ c #2B2B2B",
"@ c #343434",
"# c #3B3B3B",
"$ c #444444",
"% c #4B4B4B",
"& c #535353",
"* c #5C5C5C",
"= c #5E6363",
"- c #646464",
"; c #6B6B6B",
": c #7E6A6A",
"> c #747474",
", c #737878",
"< c #7C7C7C",
"1 c #9F0E0E",
"2 c #9E1717",
"3 c #A60000",
"4 c #AB0000",
"5 c #BB3333",
"6 c #BE3E3E",
"7 c #CC7373",
"8 c #C57D7D",
"9 c #C87C7C",
"0 c #D57272",
"q c #57559C",
"w c #656493",
"e c #5654A3",
"r c #6563A4",
"t c #221DF8",
"y c #2621F2",
"u c #2620FE",
"i c #4F4CCA",
"p c #828282",
"a c #8C8C8C",
"s c #908F8F",
"d c #8E9393",
"f c #949494",
"g c #959999",
"h c #9B9B9B",
"j c #A39999",
"k c #A3A39E",
"l c #9FA2A2",
"z c #A3A3A3",
"x c #ABABAB",
"c c #B6B6AD",
"v c #B3B3B3",
"b c #BCBCB4",
"n c #BCBCBC",
"m c #E8ACAC",
"M c #E9BBBB",
"N c #A1A0C8",
"B c #B4B4C8",
"V c #8683FA",
"C c #8B88FF",
"Z c #C3C3C3",
"A c #CEC3C3",
"S c #CCCCCC",
"D c #D5D5D4",
"F c #DBD7D7",
"G c #DBDBDB",
"H c #E7D4D4",
"J c #D2D1F2",
"K c #DDDCFF",
"L c #E4E4E4",
"P c #ECECEC",
"I c #FAE9E9",
"U c #F4F4F4",
"Y c #F9F7F7",
"T c #FFFFFF",
"R c None",
/* pixels */
"RRRRRRRRRRRRRRRRRRRRRRRRRRRRRRRRRRRRRRRRRRRRRRRRRRRRRRRRRRRRRRRR",
"RRRRRRRRRRRRRRRRRRRRRRRRRRRRRRRRRRRRRRRRRRRRRRRRRRRRRRRRRRRRRRRR",
"RRRRRRRRRRRRRRRRRRRRRRRRRRRRRRRRRRRRRRRRRRRRRRRRRRRRRRRRRRRRRRRR",
"RRRRRRRRRRRRRRRRRRRRRRRRRRRRRRRRRRRRRRRRRRRRRRRRRRRRRRRRRRRRRRRR",
"RRRRRRRRRRRRRRRRRRRRRRRRRRRRRRRRRRRRRRRRRRRRRRRRRRRRRRRRRRRRRRRR",
"RRRRRRRRRRRRRRRRRRRRRRRRRRRRRRRRRRRRRRRRRRRRRRRRRRRRRRRRRRRRRRRR",
"RRRRRRRRRRRRRRRRRRRRRRRRRRRRRRRRRRRRRRRRRRRRRRRRRRRRRRRRRRRRRRRR",
"RRRRRRRRRRRRRRRRRRRRRRRRRRRRRRRRRRRRRRRRRRRRRRRRRRRRRRRRRRRRRRRR",
"RRRRRRRRRRRRRRRRRRRRRRRRRRRRRRRRRRRRRRRRRRRRRRRRRRRRRRRRRRRRRRRR",
"RRRRRRRRRRRRRRRRRRRRRRRRRRRRRRRRRRRRRRRRRRRRRRRRRRRRRRRRRRRRRRRR",
"RRRRRRRRRRRRRRRRRRRRRRRRRRRRRRRRRRRRRRRRRRRRRRRRRRRRRRRRRRRRRRRR",
"RRRRRRRRfRRRRRRRL%RRRRRRRRRRRRRRRRRRRRRRRRRRRRRRRRRRRRRRRRRRRRRR",
"RRRRRRRTfoRRRRRRL%RRRRRRRRRRRRRRRRRRRRRRRRRRRRRRRRRRRRRRRRRRRRRR",
"RRRRRRRTfoRRRRRRL%.RRRRRRRRRRRRRRRRRRRRRRRRRRRRRRRRRRRRRRRRRRRRR",
"RRRRRRRTk+@@@@+zP%XooRRRRRRRRRRRRRRRRRRRRRRRRRRRRRRRRRRRRRRRRRRR",
"RRRRRRRv,@@@@@@-h$oooRRRRRRRRRRRRRRRRRRRRRRRRRRRRRRRRRRRRRRRRRRR",
"RRRRRRR#@@@@@####@OOORRRRRRRRRRRRRRRRRRRRRRRRRRRRRRRRRRRRRRRRRRR",
"RRRRRRR@@@@@$;>*@@@@$@ooRRRRRRRRRRRRRRRRRRRRRRRRRRRRRRRRRRRRRRRR",
"RRRRRRR$$&fhxnf*@@#%&@ooRRRRRRRRRRRRRRRRRRRRRRRRRRRRRRRRRRRRRRRR",
"RRRRRRR&%>PTTTn>$#$**#OoRRRRRRRRRRRRRRRRRRRRRRRRRRRRRRRRRRRRRRRR",
"RRRRRR#%&>PTTTYZ>&&->-#OoORRRRRRRRRRRRRRRRRRRRRRRRRRRRRRRRRRRRRR",
"RRRRR#%&pDYTPcczp>-pZa%#OooRRRRRRRRRRRRRRRRRRRRRRRRRRRRRRRRRRRRR",
"RRRR@$&%aFYPBrewpkzBUk*-#OORRRRRRRRRRRRRRRRRRRRRRRRRRRRRRRRRRRRR",
"R   #**--pPbrttigLTYTx<<*#oRRRRRRRRRRRRRRRRRRRRRRRRRRRRRRRRRRRRR",
"R   +pDDSGYcqtCJLYTTTxw<-#oRRRRRRRRRRRRRRRRRRRRRRRRRRRRRRRRRRRRR",
"RX+-aZTTTTTDNVKTTTTTTcpp-#OORRRRRRRRRRRRRRRRRRRRRRRRRRRRRRRRRRRR",
"RO-UTTTYTTTTTTTTTTTTPx<>*@oooRRRRRRRRRRRRRRRRRRRRRRRRRRRRRRRRRRR",
"R+-UTTTYTTTTTTTTTTTPzp>*@OoooooRRRRRRRRRRRRRRRRRRRRRRRRRRRRRRRRR",
"R+%hzzjj09jgbYTTTTLxp>-&+oooooooRRRRRRRRRRRRRRRRRRRRRRRRRRRRRRRR",
"R@#&&=:241:,lUTTYPx<>*&%OooooooooRRRRRRRRRRRRRRRRRRRRRRRRRRRRRRR",
"R@#&&dH535HUUTTTPzp>**$OoooOooooooRRRRRRRRRRRRRRRRRRRRRRRRRRRRRR",
"RRRR%gI56MTTTTZxxp>=*#OooooooooOoooRRRRRRRRRRRRRRRRRRRRRRRRRRRRR",
"RRRR*aA7mTGSDSf<<>-&$+ooooooooooooooRRRRRRRRRRRRRRRRRRRRRRRRRRRR",
"RRRRp<fFYLgasapp<*&$OooooooooooooOooooRRRRRRRRRRRRRRRRRRRRRRRRRR",
"RRRRRRRhhxGLLGg;*&$OoooooOooooooooooooOooRRRRRRRRRRRRRRRTTTTRRRR",
"RRRRRRRR>aZPTTDf--&$%+XooooooOooooooooooooRRRRRRRRRRRRRTTTTTRRRR",
"RRRRRRRRRRpnUTTDffa<<%+@OooooooooooooooooooRRRRRRRRRRRTTTTTTTRRR",
"RRRRRRRRRRRavYTYPUvp<<>;@oooooooooooooOoooooRRRRRRRRRTTTTTTTTTRR",
"RRRRRRRRRRR>zUTTTTLSSSvp*&%&@ooooooooooooooooRRRRRRR&p<ZTTTTTTTR",
"RRRRRRRRRRR<zUTTTTTTTTLzzzha&@@@@@ooooooOoooooRRRRRooXX>DTTTTTTR",
"RRRRRRRRRRR<zUTTTTTTTTTUUYPg<p<p<>@oOOOooooooooRRRRooooo*LTTTTTR",
"RRRRRRRRRRR<zUTTTTTTTTTTTTTGDGGLZp-***@XXoooOooRRRRooooXO*STTTTR",
"RRRRRRRRRRR>zTTTTTTTTGGTTTTTTTTLvpzvvva>>@oooooRRRRooOooo+vTTTTR",
"RRRRRRRRRRR<hLYTTTTTTvxPTTTTTTPvagLTYTTTP-XooooRRRRooooo+&ZTTTTR",
"RRRRRRRRRRRp>;DTTTTTTUSzLTTTTPzZLLYTTTTTY-XooooRRRoooooo+&ZTTTTR",
"RRRRRRRRRRRp>&pZTTTTTTDaGTTTGnnPTTTTTTTTYv*OoooRRRooooooO&ZTTTTR",
"RRRRRRRRRRRpp<$pTTTTTTDaGTTTvhUTTTTTTTTTTTxOoooRRRoooooO@&ZTTTTR",
"RRRRRRRRRRR<p<$pYTTTTTDaGTTTvhUTTTTTTTTTTTxOoooRoooOooo#%*ZTTTTR",
"RRRRRRRRRRppp<;;fLTTTTDaGTTTvhYTTTTTTTTTTTLg@oooooooooo@;vPTTTTR",
"RRRRRRRRRR<p<pp*$DTTTTLxSGGGxfDYTTTTTTTTTTTP%XoooooooO+#<UTTTTRR",
"RRRRRRRRRRppp<p-*GTTTTTPz<pp<<pSTTTTTTTTTTTP&oOoooOooO%&pPTTTRRR",
"RRRRRRRRR<<<<p<gSUTTTTLxR$@@@@#<STTTTTTTTTTYS;Xooooo+$&fGTTTRRRR",
"RRRRRRRRRpxvzp<vTTTTTTDpRRo#$@O#<SUTTTTTTTTTTZ-OXO@@$&&vTTTRRRRR",
"RRRRRRRRazUTGapnTTTTTYSpRRRda;Oo%fLTTTTTTTTTTTD$o@&&&&-nTTRRRRRR",
"RRRRRRR<vPTTFaZUTTTTTnfRRRfGv-+%gLTTTTTTTTTTTTL*$%&&&;ZUTRRRRRRR",
"RRRRRRRZLTTTGdFTTTTUZgRRRzSYn>*hLTTTTTTTTTTTTTPnxvvvfRRRRRRRRRRR",
"RRRRRRRTTTTTGaGTTTTLaRRR<vTTn<aDTTTTTTTTTTTTTTTTTTTTRRRRRRRRRRRR",
"RRRRRRRRRRRRRRRRRRRRRRRRRRRRRRRRRRRRRRRRRRRRRRRRRRRRRRRRRRRRRRRR",
"RRRRRRRRRRRRRRRRRRRRRRRRRRRRRRRRRRRRRRRRRRRRRRRRRRRRRRRRRRRRRRRR",
"RRRRRRRRRRRRRRRRRRRRRRRRRRRRRRRRRRRRRRRRRRRRRRRRRRRRRRRRRRRRRRRR",
"RRRRRRRRRRRRRRRRRRRRRRRRRRRRRRRRRRRRRRRRRRRRRRRRRRRRRRRRRRRRRRRR",
"RRRRRRRRRRRRRRRRRRRRRRRRRRRRRRRRRRRRRRRRRRRRRRRRRRRRRRRRRRRRRRRR",
"RRRRRRRRRRRRRRRRRRRRRRRRRRRRRRRRRRRRRRRRRRRRRRRRRRRRRRRRRRRRRRRR",
"RRRRRRRRRRRRRRRRRRRRRRRRRRRRRRRRRRRRRRRRRRRRRRRRRRRRRRRRRRRRRRRR"
};
