/* XPM */
static char *result[] = {
/* columns rows colors chars-per-pixel */
"64 64 205 2 ",
"   c #030D0B",
".  c #080F0F",
"X  c #000805",
"o  c #08100F",
"O  c #04100D",
"+  c #021413",
"@  c #091312",
"#  c #0A1918",
"$  c #081817",
"%  c #151C1C",
"&  c #1C1C1D",
"*  c #101717",
"=  c #221D1F",
"-  c #2B1A1C",
";  c #2D1F21",
":  c #301F22",
">  c #232628",
",  c #262C2D",
"<  c #2B2B2E",
"1  c #3D2125",
"2  c #312023",
"3  c #2E2D31",
"4  c #2C3435",
"5  c #323537",
"6  c #323738",
"7  c #39353B",
"8  c #333839",
"9  c #38383E",
"0  c #581F26",
"q  c #4F2429",
"w  c #452227",
"e  c #52242A",
"r  c #5C252C",
"t  c #592127",
"y  c #48363B",
"u  c #63262E",
"i  c #72252E",
"p  c #6F2831",
"a  c #7C2B34",
"s  c #3F3940",
"d  c #443D45",
"f  c #483F48",
"g  c #6C3640",
"h  c #3F4748",
"j  c #4B424B",
"k  c #424447",
"l  c #564A54",
"z  c #584B56",
"x  c #5B4E59",
"c  c #4E5153",
"v  c #545759",
"b  c #545A5B",
"n  c #555659",
"m  c #4E4A4F",
"M  c #6E4851",
"N  c #695764",
"B  c #6A5865",
"V  c #6D5B68",
"C  c #655461",
"Z  c #5E6163",
"A  c #626466",
"S  c #67686B",
"D  c #66676A",
"F  c #7F6677",
"G  c #7F6778",
"H  c #75777A",
"J  c #75777A",
"K  c #776A6E",
"L  c #862C37",
"P  c #8C2B36",
"I  c #932E39",
"U  c #992E3A",
"Y  c #922935",
"T  c #A42C39",
"R  c #B32D3D",
"E  c #AB313F",
"W  c #BA303F",
"Q  c #9B3D4B",
"!  c #AE3240",
"~  c #C62F40",
"^  c #C43545",
"/  c #CA3444",
"(  c #CE3648",
")  c #DE394C",
"_  c #D63547",
"`  c #E63549",
"'  c #E8384C",
"]  c #F2374C",
"[  c #A04853",
"{  c #885262",
"}  c #AA576A",
"|  c #846A7C",
" . c #896C7F",
".. c #977177",
"X. c #C9495A",
"o. c #DE485C",
"O. c #E54B5F",
"+. c #C95B71",
"@. c #E44F61",
"#. c #E35263",
"$. c #E95365",
"%. c #DC6178",
"&. c #E6697E",
"*. c #7F7F83",
"=. c #8A6E81",
"-. c #8E7385",
";. c #8E7D8A",
":. c #95768A",
">. c #997B8F",
",. c #937286",
"<. c #BB7788",
"1. c #AA748B",
"2. c #D47A8E",
"3. c #ED7E8D",
"4. c #EB7485",
"5. c #938C93",
"6. c #939195",
"7. c #969498",
"8. c #9C9A9E",
"9. c #98989D",
"0. c #91848E",
"q. c #A48197",
"w. c #A58298",
"e. c #A9849B",
"r. c #9D9DA1",
"t. c #AF89A1",
"y. c #B78EA8",
"u. c #B98FA9",
"i. c #A09EA2",
"p. c #BB91AB",
"a. c #B699AC",
"s. c #BD99B0",
"d. c #A4A1A5",
"f. c #A9A6AB",
"g. c #BAADB7",
"h. c #BDB8BE",
"j. c #B9B3B9",
"k. c #DA8098",
"l. c #F1808F",
"z. c #C396B2",
"x. c #C59AB5",
"c. c #C89AB6",
"v. c #CC9DBA",
"b. c #CE93B0",
"n. c #D599B3",
"m. c #C893AF",
"M. c #E692A6",
"N. c #C3A7B9",
"B. c #D1A1BE",
"V. c #D7ACB5",
"C. c #C2A8AF",
"Z. c #EBA9B5",
"A. c #F2ADB9",
"S. c #F4B1BC",
"D. c #BDBEC2",
"F. c #D4A3C1",
"G. c #D9A6C5",
"H. c #D6AAC6",
"J. c #D9A9C6",
"K. c #DDAAC9",
"L. c #DDA7C8",
"P. c #C8BAC5",
"I. c #DBB4CC",
"U. c #DAB8CE",
"Y. c #DDBBD1",
"T. c #CDAFC2",
"R. c #E0ACCC",
"E. c #E0ABC0",
"W. c #E5B7CE",
"Q. c #E2B5D1",
"!. c #E2BCD4",
"~. c #E8BED8",
"^. c #CAC4CB",
"/. c #D3CCD2",
"(. c #DCC8D6",
"). c #D7D1D7",
"_. c #DAD3DA",
"`. c #DAD4DA",
"'. c #D5C2CF",
"]. c #E1C2D6",
"[. c #E5C3D9",
"{. c #E5CBDC",
"}. c #EAC8DC",
"|. c #EED1DA",
" X c #E4D5DC",
".X c #F0D3DB",
"XX c #DEDCE2",
"oX c #EBCDE1",
"OX c #EBD4E3",
"+X c #E4DDE4",
"@X c #EBDAE6",
"#X c #EDDDE8",
"$X c #E7D1E0",
"%X c #F1D4E6",
"&X c #EEE3EC",
"*X c #E8E3E9",
"=X c #F0E5EE",
"-X c #F0E8EF",
";X c #F3EBF2",
":X c #F8EFF7",
">X c #F8F0F7",
",X c #FBF2FA",
"<X c #F6F0F6",
"1X c #EFE9F2",
"2X c None",
/* pixels */
"2X2X2X2X2X2X2X2X2X2X2X2X2X2X2X2X2X2X2X2X2X2X2X2X2X2X2X2X2X2X2X2X2X2X2X2X2X2X2X2X2X2X2X2X2X2X2X2X2X2X2X2X2X2X2X2X2X2X2X2X2X2X2X2X",
"2X2X2X2X2X2X2X2X2X2X2X2X2X2X2X2X2X2X2X2X2X2X2X2X2X2X2X2X2X2X2X2X2X2X2X2X2X2X2X2X2X2X2X2X2X2X2X2X2X2X2X2X2X2X2X2X2X2X2X2X2X2X2X2X",
"2X2X2X2X2X2X2X2X2X2X2X2X2X2X2X2X2X2X2X2X2X2X2X2X2X2X2X2X2X2X2X2X2X2X2X2X2X2X2X2X2X2X2X2X2X2X2X2X2X2X2X2X2X2X2X2X2X2X2X2X2X2X2X2X",
"2X2X2X2X2X2X2X2X2X2X2X2X2X2X2X2X2X2X2X2X2X2X2X2X2X2X2X2X2X2X2X2X2X2X2X2X2X2X2X2X2X2X2X2X2X2X2X2X2X2X2X2X2X2X2X2X2X2X2X2X2X2X2X2X",
"2X2X2X2X2X2X2X2X2X2X2X2X2X2X2X2X2X2X2X2X2X2X2X2X2X2X2X2X2X2X2X2X2X2X2X2X2X2X2X2X2X2X2X2X2X2X2X2X2X2X2X2X2X2X2X2X2X2X2X2X2X2X2X2X",
"2X2X2X2X2X2X2X2X2X2X2X2X2X2X2X2X2X2X2X2X2X2X2X2X2X2X2X2X2X2X2X2X2X2X2X2X2X2X2X2X2X2X2X2X2X2X2X2X2X2X2X2X2X2X2X2X2X2X2X2X2X2X2X2X",
"2X2X2X2X2X2X2X2X2X2X2X2X2X2X2X2X2X2X2X2X2X2X2X2X2X2X2X2X2X2X2X2X2X2X2X2X2X2X2X2X2X2X2X2X2X2X2X2X2X2X2X2X2X2X2X2X2X2X2X2X2X2X2X2X",
"2X2X2X2X2X2X2X2X2X2X2X2X2X2X2X2X2X2X2X2X2X2X2X2X2X2X2X2X2X2X2X2X2X2X2X2X2X2X2X2X2X2X2X2X2X2X2X2X2X2X2X2X2X2X2X2X2X2X2X2X2X2X2X2X",
"2X2X2X2X2X2X2X2X2X2X2X2X2X2X2X2X2X2X2X2X2X2X2X2X2X2X2X2X2X2X2X2X2X2X2X2X2X2X2X2X2X2X2X2X2X2X2X2X2X2X2X2X2X2X2X2X2X2X2X2X2X2X2X2X",
"2X2X2X2X2X2X2X2X2X2X2X2X2X2X2X2X2X2X2X2X2X2X2X2X2X2X2X2X2X2X2X2X2X2X2X2X2X2X2X2X2X2X2X2X2X2X2X2X2X2X2X2X2X2X2X2X2X2X2X2X2X2X2X2X",
"2X2X2X2X2X2X2X2X2X2X2X2X2X2X2X2X2X2X2X2X2X2X2X2X2X2X2X2X2X2X2X2X2X2X2X2X2X2X2X2X2X2X2X2X2X2X2X2X2X2X2X2X2X2X2X2X2X2X2X2X2X2X2X2X",
"2X2X2X2X2X2X2X2X2X2X2X2X2X2X2X2X2X2X2X2X2X2X2X2X2X2X2X2X2X2X2X2X2X2X2X2X2X2X2X2X2X2X2X2X2X2X2X2X2X2X2X2X2X2X2X2X2X2X2X2X2X2X2X2X",
"2X2X2X2X2X2X2X2X2X2X2X2X2X2X2X2X2X2X2X2X2X2X2X2X2X2X2X2X2X2X2X2X2X2X2X2X2X2X2X2X2X2X2X2X2X2X2X2X2X2X2X2X2X2X2X2X2X2X2X2X2X2X2X2X",
"2X2X2X2X2X2X2X2X2X2X2X2X2X2X2X2X2X2X2X2X2X2X2X2X2X2X2X2X2X2X2X2X2X2X2X2X2X2X2X2X2X2X2X2X2X2X2X2X2X2X2X2X2X2X2X2X2X2X2X2X2X2X2X2X",
"2X2X2X2X2X2X2X2X2X2X2X2X2X2X2X2X2X2X2X2X2X2X2X2X2X2X2X2X2X2X2X2X2X2X2X2X2X2X2X2X2X2X2X2X2X2X2X2X2X2X2X2X2X2X2X2X2X2X2X2X2X2X2X2X",
"2X2X2X2X2X2X2X2X2X2X2X2X2X2X2X2X2X2X2X2X2X2X2X2X2X2X2X2X2X2X2X2X2X2X2X2X2X2X2X2X2X2X2X2X2X2X2X2X2X2X2X2X2X2X2X2X2X2X2X2X2X2X2X2X",
"2X2X2X2X2X2X2X2X2X2X2X2X2X2X2X2X2Xo o o o o o o o o o o o o . o o o . 2X2X2X2X2X2X2X2X2X2X2X2X2X2X2X2X2X2X2X2X2X2X@ @ 2X2X2X2X2X",
"2X2X2X2X2X2X2X2X2X2X2X2X2X2X2X2X% % % % % % % % % % % % % % % % % % % % 2X2X2X2X2X2X2X2X2X2X2X2X2X2X2X2X2X2X2X2X% % % % 2X2X2X2X",
"2X2X2X2X2X2X2X2X2X2X2X2X2X2X2X2X6 5 6 8 8 8 8 8 8 8 6 8 8 8 8 8 5 8 5 5 2X2X2X2X2X2X2X2X2X2X2X2X2X2X2X2X2X2X2X2X3 3 3 3 2X2X2X2X",
"2X2X2X2X2X2X2X2X2X2X2X2X2X2X2Xk b Z A D S S D D A A A A A A A A A A Z v k 2X2X2X2X2X2X2X2X2X2X2X2X2X2X2X2X2X2X7 j m l j s 2X2X2X",
"2X2X2X2X2X2X2X2X2X# $ + O # , n H 6.i.d.d.d.d.d.i.i.8.8.8.i.8.i.d.8.6.H n , @ X   . . 2X2X2X2X2X2X2X2X2X2X@ > j B F G V j 3 % @ ",
"2X2X2X2X2X2X2X2X% % % @ * & 6 A 6.h./.`._././././././././././.).)./.h.6.A 5 % * * % % % 2X2X2X2X2X2X2X2X@ & 3 z | q.q.| x 3 % @ ",
"2X2X2X2X2X2X2X2X; ; ; - - ; y K f./.*X*X`.).).`.+X=X;X;X;X-X;X>X:X=X).f.J j 5 < < 4 5 5 2X2X2X2X2X2X2X2X> 3 d B >.p.u.,.x 3 % @ ",
"2X2X2X2X2X2X2Xw q r r t t r M ..C. X-XXX^.j.g.^._.-X>X,X,X,X,X,X,X:X+Xj.0.D z x n A Z b k 2X2X2X2X2X2X5 d l B -.t.x.p.,.x 3 % @ ",
"2X2X2X2X2X% 2 q p L I Y P I [ <.V. X*X^.r.*.*.9.h.*X;X,X,X>X>X,X,X,X+XP.a.0.,.;.5.8.6.*.c , o X X @ > d C | :.t.x.v.p.,.x 3 % @ ",
"2X2X2X2X$ % ; r L ! ^ / ^ ^ X.2.Z.|.).f.J c b H f.).;X>X>X;X;X:X:X;X#X(.T.x.s.N.P.^.N.9.A 8 % o @ % 3 z G q.p.v.F.v.u.=.z 3 % @ ",
"2X2X2X2X$ % 2 r I ^ ) ` ` ' #.l.S.|./.r.Z 8 6 Z 9.).;X>X>X;X;X;X;X;X&X$XY.I.U.~.oXOX'.f.J c 6 , > 3 d B :.p.B.J.R.F.u.=.z 3 % @ ",
"2X2X2X2X$ % ; u U ( ' ] ' ' $.l.S.|./.9.b , , b 7./.;X>X>X;X;X;X;X;X&X#XOX}.}.oX%XOX(.g.7.H A n z x B | e.c.L.R.R.F.u.=.z 3 % @ ",
"2X2X2X2X$ % ; r U ( ' ] ] ' #.l.S.|./.9.b , , b 7./.;X>X>X;X;X;X;X;X=X&X#X@XOXoX}.[.'.P.g.d.9.5.;.-.:.w.p.v.L.J.K.F.y.=.z 3 % @ ",
"2X2X2X2X$ % ; r I ^ ) ` ` ' #.3.S.|.).i.Z 8 4 Z 9./.;X>X>X;X;X-X;X;X;X-X-X&XOXoX!.U.I.U.'.'.'.P.g.p.p.z.x.B.F.L.L.B.u.=.z 3 % @ ",
"2X2X2X2X$ % ; q a ! ^ _ _ ) #.l.S.|.).f.H c c H d._.;X>X>X;X-X;X-X;X;X1X&X&XOX{.U.H.J.Y.{.OXOX{.U.H.F.B.B.F.F.L.L.B.u.=.z 3 % @ ",
"2X2X2X2X# & ; 1 r a U R ~ _ #.3.S.|.`.D.9.J J 9.h.`.-X<X:X;X;X;X;X;X;X&X#XOX{.Y.H.F.L.I.}.OX%XoX~.Q.K.L.F.F.F.F.G.B.p.| z 3 % @ ",
"2X2X2X2X* % % ; : q p P E ( $.3.A..X*X`.D.f.f.h./.*X;X<X;X-X;X;X;X;X-X#X{.].Y.I.H.F.F.I.Q.[.}.~.Q.R.K.L.F.F.F.F.L.B.u.=.z 3 % @ ",
"2X2X2X2X% % % & = ; w i U ( @.4.A.OX*X*XXX_._.`.*X&X;X;X;X;X;X;X;X;X&X$X].U.H.F.F.F.F.F.H.J.H.H.F.F.F.F.B.F.F.L.L.B.u.=.z 3 % @ ",
"2X2X2X2X# % & & = : w i T / @.4.Z.}.#X1X;X;X1X1X-X-X;X;X;X;X;X-X-X&XOX{.U.J.F.F.B.B.B.v.z.p.p.y.y.p.p.z.c.F.F.L.L.B.y.=.z 3 % @ ",
"2X2X2X2X% % & ; : e p Y R _ @.4.M.W.OX&X;X,X,X,X>X;X;X;X;X;X=X=X#XOX{.Y.U.J.F.L.L.G.v.p.w.,. .| | =.,.q.p.v.G.K.J.F.u.=.z 3 % @ ",
"2X2X2X2X# & = 1 p L U W / ) @.&.M.Z.].@X&X;X,X,X<X<X;X;X;X:X=X@X{.].Q.I.K.J.L.L.L.G.x.e.| B z j m z B | e.c.L.K.K.F.y.=.z 3 % @ ",
"2X2X2X2X$ % ; e L E / _ _ ) o.%.k.n.I.{.OX&X;X;X;X;X;X;X;X;X&X$X].U.H.F.F.B.B.F.L.B.p.:.B d 3 > > 3 d B :.p.F.K.K.F.u.=.l 3 % @ ",
"2X2X2X2X$ % : e L ! ! / / ^ X.+.2.b.H.Y.$XOX#X=X=X=X&X=X=X=X@X}.!.H.v.v.z.p.p.p.p.u.w.| z 3 % @ @ % 3 z | q.p.v.F.v.p.=.z 3 % @ ",
"2X2X2X2X2X% : e a Y U U I I Q } <.b.J.!.}.oXOXOX|.OXOXOXOXOX{.[.Q.J.v.u.w.:.=. .=. .F B f > @ X X @ > d C G :.t.x.v.p.-.x 3 % @ ",
"2X2X2X2X2X2X2Xw e r u r t u p { 1.z.L.Q.!.!.[.[.[.[.~.[.[.[.!.!.Q.J.x.e.| N z l l l m f 7 2X2X2X2X2X2X5 d l B =.t.c.p.,.x 5 % @ ",
"2X2X2X2X2X2X2X2X; ; : - - 2 y C ,.p.F.L.L.H.H.J.J.J.H.H.H.H.H.J.J.B.p.:.N d 3 , < 3 3 3 2X2X2X2X2X2X2X2X> 3 d V >.p.y.,.x 3 % @ ",
"2X2X2X2X2X2X2X2X% % % % @ & 3 z | >.p.p.p.y.y.u.u.u.u.u.y.u.p.p.p.p.q.| z 3 % * * % % % 2X2X2X2X2X2X2X2X@ % 3 z | w.w.| z 3 % @ ",
"2X2X2X2X2X2X2X2X2X$ $ + + # , k N | =.-.=.=.=.=. . . . . . . .=.=.| | N j > @   . @ @ 2X2X2X2X2X2X2X2X2X2X@ > j B F F B j 3 % @ ",
"2X2X2X2X2X2X2X2X2X2X2X2X2X2X2Xs j l l l l z l l l l l l l z z z z z l j 7 2X2X2X2X2X2X2X2X2X2X2X2X2X2X2X2X2X2X7 f m l j d 2X2X2X",
"2X2X2X2X2X2X2X2X2X2X2X2X2X2X2X2X3 3 3 3 3 3 3 3 3 3 3 3 3 3 3 3 3 3 3 < 2X2X2X2X2X2X2X2X2X2X2X2X2X2X2X2X2X2X2X2X3 3 3 3 2X2X2X2X",
"2X2X2X2X2X2X2X2X2X2X2X2X2X2X2X2X% % % % % % % % % % % % % % % % % % % % 2X2X2X2X2X2X2X2X2X2X2X2X2X2X2X2X2X2X2X2X% % % % 2X2X2X2X",
"2X2X2X2X2X2X2X2X2X2X2X2X2X2X2X2X2X@ @ @ @ @ @ @ @ @ @ @ @ @ @ @ @ @ @ 2X2X2X2X2X2X2X2X2X2X2X2X2X2X2X2X2X2X2X2X2X2X@ @ 2X2X2X2X2X",
"2X2X2X2X2X2X2X2X2X2X2X2X2X2X2X2X2X2X2X2X2X2X2X2X2X2X2X2X2X2X2X2X2X2X2X2X2X2X2X2X2X2X2X2X2X2X2X2X2X2X2X2X2X2X2X2X2X2X2X2X2X2X2X2X",
"2X2X2X2X2X2X2X2X2X2X2X2X2X2X2X2X2X2X2X2X2X2X2X2X2X2X2X2X2X2X2X2X2X2X2X2X2X2X2X2X2X2X2X2X2X2X2X2X2X2X2X2X2X2X2X2X2X2X2X2X2X2X2X2X",
"2X2X2X2X2X2X2X2X2X2X2X2X2X2X2X2X2X2X2X2X2X2X2X2X2X2X2X2X2X2X2X2X2X2X2X2X2X2X2X2X2X2X2X2X2X2X2X2X2X2X2X2X2X2X2X2X2X2X2X2X2X2X2X2X",
"2X2X2X2X2X2X2X2X2X2X2X2X2X2X2X2X2X2X2X2X2X2X2X2X2X2X2X2X2X2X2X2X2X2X2X2X2X2X2X2X2X2X2X2X2X2X2X2X2X2X2X2X2X2X2X2X2X2X2X2X2X2X2X2X",
"2X2X2X2X2X2X2X2X2X2X2X2X2X2X2X2X2X2X2X2X2X2X2X2X2X2X2X2X2X2X2X2X2X2X2X2X2X2X2X2X2X2X2X2X2X2X2X2X2X2X2X2X2X2X2X2X2X2X2X2X2X2X2X2X",
"2X2X2X2X2X2X2X2X2X2X2X2X2X2X2X2X2X2X2X2X2X2X2X2X2X2X2X2X2X2X2X2X2X2X2X2X2X2X2X2X2X2X2X2X2X2X2X2X2X2X2X2X2X2X2X2X2X2X2X2X2X2X2X2X",
"2X2X2X2X2X2X2X2X2X2X2X2X2X2X2X2X2X2X2X2X2X2X2X2X2X2X2X2X2X2X2X2X2X2X2X2X2X2X2X2X2X2X2X2X2X2X2X2X2X2X2X2X2X2X2X2X2X2X2X2X2X2X2X2X",
"2X2X2X2X2X2X2X2X2X2X2X2X2X2X2X2X2X2X2X2X2X2X2X2X2X2X2X2X2X2X2X2X2X2X2X2X2X2X2X2X2X2X2X2X2X2X2X2X2X2X2X2X2X2X2X2X2X2X2X2X2X2X2X2X",
"2X2X2X2X2X2X2X2X2X2X2X2X2X2X2X2X2X2X2X2X2X2X2X2X2X2X2X2X2X2X2X2X2X2X2X2X2X2X2X2X2X2X2X2X2X2X2X2X2X2X2X2X2X2X2X2X2X2X2X2X2X2X2X2X",
"2X2X2X2X2X2X2X2X2X2X2X2X2X2X2X2X2X2X2X2X2X2X2X2X2X2X2X2X2X2X2X2X2X2X2X2X2X2X2X2X2X2X2X2X2X2X2X2X2X2X2X2X2X2X2X2X2X2X2X2X2X2X2X2X",
"2X2X2X2X2X2X2X2X2X2X2X2X2X2X2X2X2X2X2X2X2X2X2X2X2X2X2X2X2X2X2X2X2X2X2X2X2X2X2X2X2X2X2X2X2X2X2X2X2X2X2X2X2X2X2X2X2X2X2X2X2X2X2X2X",
"2X2X2X2X2X2X2X2X2X2X2X2X2X2X2X2X2X2X2X2X2X2X2X2X2X2X2X2X2X2X2X2X2X2X2X2X2X2X2X2X2X2X2X2X2X2X2X2X2X2X2X2X2X2X2X2X2X2X2X2X2X2X2X2X",
"2X2X2X2X2X2X2X2X2X2X2X2X2X2X2X2X2X2X2X2X2X2X2X2X2X2X2X2X2X2X2X2X2X2X2X2X2X2X2X2X2X2X2X2X2X2X2X2X2X2X2X2X2X2X2X2X2X2X2X2X2X2X2X2X",
"2X2X2X2X2X2X2X2X2X2X2X2X2X2X2X2X2X2X2X2X2X2X2X2X2X2X2X2X2X2X2X2X2X2X2X2X2X2X2X2X2X2X2X2X2X2X2X2X2X2X2X2X2X2X2X2X2X2X2X2X2X2X2X2X",
"2X2X2X2X2X2X2X2X2X2X2X2X2X2X2X2X2X2X2X2X2X2X2X2X2X2X2X2X2X2X2X2X2X2X2X2X2X2X2X2X2X2X2X2X2X2X2X2X2X2X2X2X2X2X2X2X2X2X2X2X2X2X2X2X",
"2X2X2X2X2X2X2X2X2X2X2X2X2X2X2X2X2X2X2X2X2X2X2X2X2X2X2X2X2X2X2X2X2X2X2X2X2X2X2X2X2X2X2X2X2X2X2X2X2X2X2X2X2X2X2X2X2X2X2X2X2X2X2X2X"
};
