/* XPM */
static char *result[] = {
/* columns rows colors chars-per-pixel */
"64 64 82 1 ",
"  c #051216",
". c #081417",
"X c #0C1618",
"o c #0F191A",
"O c #141B1B",
"+ c #191E1D",
"@ c #1E211E",
"# c #21221F",
"$ c #252621",
"% c #2B2622",
"& c #2C2A24",
"* c #352A25",
"= c #3B2C26",
"- c #3C2F28",
"; c #363127",
": c #373128",
"> c #3B3329",
", c #43352B",
"< c #48332A",
"1 c #44382C",
"2 c #4B3D2F",
"3 c #50352C",
"4 c #57382E",
"5 c #5B392F",
"6 c #643E32",
"7 c #4D4030",
"8 c #544132",
"9 c #594234",
"0 c #624737",
"q c #6D4E3B",
"w c #704335",
"e c #774638",
"r c #6B523A",
"t c #73563D",
"y c #74583D",
"u c #7A5B3F",
"i c #00FF00",
"p c #7E5E41",
"a c #824C3B",
"s c #8C4F3D",
"d c #954F3F",
"f c #84563F",
"g c #8D543F",
"h c #94513F",
"j c #845B41",
"k c #8B5E45",
"l c #965440",
"z c #995642",
"x c #955942",
"c c #995C44",
"v c #A05E46",
"b c #856243",
"n c #8D6545",
"m c #9C6246",
"M c #916A47",
"N c #946349",
"B c #9D6649",
"V c #956C49",
"C c #9E6A4A",
"Z c #9E724C",
"A c #A06648",
"S c #A16D4B",
"D c #AC6D4D",
"F c #A3754E",
"G c #A8734E",
"H c #A5784F",
"J c #A77750",
"K c #A97750",
"L c #AC7851",
"P c #B37252",
"I c #BE7454",
"U c #B37B54",
"Y c #BB7D56",
"T c #BF7E58",
"R c #C07F58",
"E c #C4815A",
"W c #CC835C",
"Q c #D2865F",
"! c #D68760",
"~ c #D78861",
"^ c #DA8962",
"/ c None",
/* pixels */
"////////////////////////////////////////////////////////////////",
"////////////////////////////////////////////////////////////////",
"////////////////////////iiiiiiiiiiiiiiiii///////////////////////",
"/////////////////////////iiiiiiiiiiiiiii////////////////////////",
"//////////////////////////iiiiiiiiiiiii/////////////////////////",
"///////////////////////////iiiiiiiiiii//////////////////////////",
"////////////////////////////iiiiiiiii///////////////////////////",
"/////////////////////////////iiiiiii////////////////////////////",
"//////////////////////////////iiiii/////////////////////////////",
"///////////////////////////////iii//////////////////////////////",
"//////////////////////O//XXX////X///////XX//////////////////////",
"/////////////////////>@./=>-*//:>*/////=->>/////////////////////",
"////////////////////>M1O-hCmw$OrSa%####ehmV>////////////////////",
"//////////////////X2MFgfnzSBxp$rSdajgfnhmFFM2X//////////////////",
"///////////////..X8bFmBGSlSSFZynGBzSAcFzmSmFb8X.X///////////////",
"//////////////1998nKSzFFCmFFFFHHFShSCAUDSSzSKn9991//////////////",
"/////////////%b!WWLJCxSJKKFHKKFFJKvSJLW!YCzSFUWWQk$/////////////",
"////////////$pHKKKFJJFFUWWKYWWKZP!RLZLQ~YFFFFHHLKFp$////////////",
"///////////X@nHKEEREYJFT~!KT^WKFU^~UZHUUKFFYRRERLFZy* X/////////",
"//////////10qVJU!!!!WYJLRTKR~QYKLTRYUUUJFJYQ^^!!UFFYY08/////////",
"/////////*k^QUFUWWWW!!LFFFFUW!~UFFKE~!!LZUQQWWWWUFUQ~^P,////////",
"////////$NW!!QUFJFJY!WLFJKJFUW!UFKW!W!WLFLW!YFFHFUWQQ!!Y>///////",
"////////O:pEQ!UFFFFFLLJUEEEUJU!ULW!!EULHZJLUFFFFFU~~Q!^Q,///////",
"////////O1pKUYLFZFUTUFFY^~~YZFUKKYTYLFFFFFFUYUFFFLYYYYKq%///////",
"////////2CULLJFHLLW~WUFUWEWUHLLLKFZFFFFFFFUW^WLLHFJLLLC,+///////",
"///////1RQQWWKZUQQQWQWUFFFFFUW!!EHFFHHJFFUWWWQQQUZJWQQWR1O//////",
"/////X0LLLLLKHFUQQYKLLFFFFFYW!!~EFFFUWEKFFLLLY!QUFJKLLLLP0X/////",
"/////X9RTYTTYHFKYYKLUFFUUFFR~!!ELZFFY~~ELFFULFYYKFJYTTYYE9X/////",
"/////:tY!!WEEKFFZFLEWFLEWHFUEEELFUUFUW!!RLKWEKZFJFHEEW~!Yt://///",
"////+uR!!WUFFFFJHKE!WKE!EFKKHHFHUQQUZKWW!EKW~EKKJZFFFUW~!RpO////",
"////+N^~QUJJFFFUWWQQWKE!WKEWRFFZUQ!UFFLW!EJW~QWWUFFFJJU!W~N@////",
"////+B^WUJZKERKU!!!WLJW~EKW^WFFFKYUKHFFE~WFUE!!!UKERKFHUW^C@////",
"////@B^WFFLEQQUHEEEUFFUEISPIPABSCCASASFYEYFFUEERLUQQRKFFW^B@////",
"////OB^EHFEQQWUFFFFFFFFGShhhhlhlhhhhhcCGFHFFFFFFFUQQ!EJFE^B+////",
"////@CEFHEQQQUFFFFFFFFHAhhddhhhhhhhhhhhhAHGHFFFFFFLQQQEHFEC+////",
"///*NKKFFWQQQLFFFFFScccchh3==,----==>4hhhccACFFFFZLQ!QWFFKLN*///",
"///*YLFFHW^QYLFFFFFChdhzh5#oOOXXooooo@4ghhhhCFFFFFFRWQWFJZUU*///",
"///&VHFFHRWYGSCFZFFBzhhh6OOOOOOOOOOOOO+5hzhhBFFFFZSFYQEFZJHV&///",
"///&VHFFFFGSchhzhFFBzhh4OOOOOOOOOOOOOOO+5hzhBFFzhzhzSHHFJZJV&///",
"///&VAzcFFFSzhhhhcchdhc4OOOOOOOOOOOOOOOo4chhzzchhhhzSFFGmcBV&///",
"//:rZclcFFCmhmchzBmchhw*OOOOOOOOOOOOOOOo*6hhcBmhhzBhcSFFclcCr>//",
"/o2JFclzFFmhcFmhhFHBhh*XOOOOOOOOOOOOOOO+X*hhAHFzhcFchmFFldcJH7X/",
"/X2JFclcFFmcFFmhcFFBhh*oOOOOOOOOOOOOOOOOo=hhBFFzzmFFcmFFclcFJ2X/",
"/o2FczcSFmhcFFmzGFFChg*oOOOOOOOOOOOOOOOOo-hhBFFFzmHFchcFFclxF7X/",
"/X2SllmJFzhcFHmcFFFChh=XOOOOOOOOOOOOOOOOo*hhSFFFmBFFchcFFmhzS2X/",
"/X7FlcCFFchcFSzmFFSmhh*OOOOOOOOOOOOOOOOOX=hhmSFFczSFchcFFSzxF2o/",
"/X7SxCFFFzhcFlhcFFmhhh*OOOOOOOOOOOOOOOOOO*hhhcHFmhxFchxFFHCzS2X/",
"/X<zzCHCzhBFFxhmFFmhhh*XOOOOOOOOOOOOOOOOo*ghhcFFchzSFBlzCHClz<O/",
"/////FFSlhBFFxhcFFchzh*XOO////////////OOX*hhlcFFmhzFFBhlSHCl////",
"/////FSmllBHFzhmFFmlhh*OOO////////////OOO*hzhmFFchzFFBllmFSz////",
"/////JAlllBFFzhmFFchlh=XO//////////////OX-hlhcFFmhzFHBllhBF/////",
"////////////////FFmhll////////////////////hzhmFF////////////////",
"////////////////////////////////////////////////////////////////",
"////////////////////////////////////////////////////////////////",
"////////////////////////////////////////////////////////////////",
"////////////////////////////////////////////////////////////////",
"////////////////////////////////////////////////////////////////",
"////////////////////////////////////////////////////////////////",
"////////////////////////////////////////////////////////////////",
"////////////////////////////////////////////////////////////////",
"////////////////////////////////////////////////////////////////",
"////////////////////////////////////////////////////////////////",
"////////////////////////////////////////////////////////////////",
"////////////////////////////////////////////////////////////////"
};
