/* XPM */
static char *result[] = {
/* columns rows colors chars-per-pixel */
"64 64 141 2 ",
"   c #020F13",
".  c #071215",
"X  c #0A1417",
"o  c #0B1618",
"O  c #0E1919",
"+  c #141B1B",
"@  c #1B1E1D",
"#  c #1D211F",
"$  c #21211F",
"%  c #1E2320",
"&  c #252421",
"*  c #2B2623",
"=  c #272823",
"-  c #292B25",
";  c #332B26",
":  c #3A2C27",
">  c #3B2E28",
",  c #2F3129",
"<  c #34332A",
"1  c #3B352C",
"2  c #46372D",
"3  c #4B342D",
"4  c #45392F",
"5  c #54372F",
"6  c #453D31",
"7  c #553931",
"8  c #5A3C32",
"9  c #643F35",
"0  c #434033",
"q  c #4D4335",
"w  c #4D4938",
"e  c #534637",
"r  c #5D4336",
"t  c #524D3B",
"y  c #5D4C3B",
"u  c #57503D",
"i  c #654136",
"p  c #684237",
"a  c #664738",
"s  c #6E4539",
"d  c #614F3D",
"f  c #6E4D3C",
"g  c #74473B",
"h  c #7C4B3E",
"j  c #64523E",
"k  c #73513E",
"l  c #79513F",
"z  c #625440",
"x  c #6C5742",
"c  c #655C45",
"v  c #715742",
"b  c #7E5641",
"n  c #715B44",
"m  c #6E6148",
"M  c #796047",
"N  c #74654B",
"B  c #7E6349",
"V  c #786C4F",
"C  c #796D50",
"Z  c #814D3F",
"A  c #854F40",
"S  c #835442",
"D  c #8C5243",
"F  c #815843",
"G  c #875D48",
"H  c #965746",
"J  c #985646",
"K  c #975847",
"L  c #995947",
"P  c #965A48",
"I  c #9C5C49",
"U  c #A05F4B",
"Y  c #82664B",
"T  c #96634B",
"R  c #9E634D",
"E  c #8F6F51",
"W  c #8F7E5B",
"Q  c #9B7756",
"!  c #9D7857",
"~  c #997A58",
"^  c #A3634D",
"/  c #A9674F",
"(  c #A36A4F",
")  c #AA684F",
"_  c #A56B52",
"`  c #AD6B51",
"'  c #B16E53",
"]  c #A77256",
"[  c #AA7356",
"{  c #AB7659",
"}  c #A57C5A",
"|  c #AB7D5C",
" . c #B47255",
".. c #B97557",
"X. c #BB7758",
"o. c #B37C5B",
"O. c #BD7A59",
"+. c #C17C5B",
"@. c #92805C",
"#. c #A5845F",
"$. c #AB825D",
"%. c #B6825E",
"&. c #BA825F",
"*. c #B48661",
"=. c #BB8661",
"-. c #B58962",
";. c #BC8C64",
":. c #AA9067",
">. c #AF976B",
",. c #B59066",
"<. c #BD936A",
"1. c #B1996C",
"2. c #B99B6E",
"3. c #BB9E70",
"4. c #BCA172",
"5. c #C1815E",
"6. c #C38561",
"7. c #C48D65",
"8. c #CB8F67",
"9. c #C39067",
"0. c #C69469",
"q. c #C9966A",
"w. c #C29B6E",
"e. c #CB9A6D",
"r. c #D19B6E",
"t. c #C59E71",
"y. c #CA9F70",
"u. c #C6A173",
"i. c #CCA373",
"p. c #C6A876",
"a. c #CEA977",
"s. c #CEAC78",
"d. c #D0A171",
"f. c #D3A977",
"g. c #D1AE7A",
"h. c #D3B47D",
"j. c #D5B780",
"k. c #D8B780",
"l. c #D6B880",
"z. c #DABB82",
"x. c None",
/* pixels */
"x.x.x.x.x.x.x.x.x.x.x.x.x.x.x.x.x.x.x.x.x.x.x.x.x.x.x.x.x.x.x.x.x.x.x.x.x.x.x.x.x.x.x.x.x.x.x.x.x.x.x.x.x.x.x.x.x.x.x.x.x.x.x.x.",
"x.x.x.x.x.x.x.x.x.x.x.x.x.x.x.x.x.x.x.x.x.x.x.x.x.x.x.x.x.x.x.x.x.x.x.x.x.x.x.x.x.x.x.x.x.x.x.x.x.x.x.x.x.x.x.x.x.x.x.x.x.x.x.x.",
"x.x.x.x.x.x.x.x.x.x.x.x.x.x.x.x.x.x.x.x.x.o o o o o o o o X o O o o X o o o o o o o O x.x.x.x.x.x.x.x.x.x.x.x.x.x.x.x.x.x.x.x.x.",
"x.x.x.x.x.x.x.x.x.x.x.x.x.x.x.x.x.x.x.x.- - & & & - & & = = = $ = = * & & = & & & - & $ x.x.x.x.x.x.x.x.x.x.x.x.x.x.x.x.x.x.x.x.",
"x.x.x.x.x.x.x.x.x.x.x.x.x.x.X . .   X 1 j k n n n n n n n n n n n n n n n n n n m n n j 1 . . o x.x.x.x.x.x.x.x.x.x.x.x.x.x.x.x.",
"x.x.x.x.x.x.x.x.x.x.x.x.x.# # # # # # e @.<.;.;.;.;.;.;.;.;.;.;.;.;.;.;.;.;.;.;.;.;.9.} e # # # # x.x.x.x.x.x.x.x.x.x.x.x.x.x.x.",
"x.x.x.x.x.x.x.x.x.x.x.x.& q y j j y j Y &.d.e.e.e.q.e.e.e.e.e.e.e.e.e.e.e.e.e.e.q.e.e.-.Y y y y 0 x.x.x.x.x.x.x.x.x.x.x.x.x.x.x.",
"x.x.x.x.x.x.x.x.x.x.x.+ < M $.-.,.$.$.&.9.q.q.0.q.0.q.0.0.0.0.0.0.0.0.0.0.0.0.q.q.q.q.9.,.%.%.| x = + + @ + @ x.x.x.x.x.x.x.x.x.",
"x.x.x.x.x.x.x.x.x.x.= 6 j Q 0.e.e.q.e.q.q.9.0.0.0.0.0.0.0.0.0.0.0.0.0.0.0.0.0.0.0.0.0.0.q.r.r.9.E e q t t t w < x.x.x.x.x.x.x.x.",
"x.x.x.x.x.x.x.x.x.O 1 B $.;.q.q.q.0.q.q.0.q.0.0.0.0.0.0.0.0.0.0.0.0.0.0.0.0.0.0.0.0.0.0.0.0.0.0.%.#.$.:.1.>.@.w + x.x.x.x.x.x.x.",
"x.x.x.x.x.x.x.x.= 1 d ! e.q.0.0.0.0.0.0.0.0.0.0.0.0.0.0.0.0.0.0.0.0.0.0.0.0.0.0.0.0.0.0.0.0.0.0.q.q.i.h.z.z.4.N 0 , x.x.x.x.x.x.",
"x.x.x.x.x.x.x.+ 6 B } ;.q.q.0.0.0.0.0.0.0.0.0.0.0.0.0.0.0.0.0.0.0.0.0.0.0.0.0.0.0.0.0.0.0.0.0.0.q.q.i.h.z.j.s.1.W u % x.x.x.x.x.",
"x.x.x.x.x.x.@ * y | e.q.0.0.0.0.0.0.0.0.0.0.0.0.0.0.0.0.0.0.0.0.0.0.0.0.0.0.0.0.0.0.0.0.0.0.0.0.0.0.y.g.h.h.h.z.4.c % . x.x.x.x.",
"x.x.x.x.x.@ : 9 G -.e.q.0.0.0.0.0.0.0.0.0.0.0.0.0.0.0.0.0.0.0.0.0.0.0.0.0.0.0.0.0.0.0.0.0.0.0.0.0.q.i.g.h.h.h.z.u.c % . x.x.x.x.",
"x.x.x.x.o @ 3 Z _ ;.q.0.0.0.0.0.0.0.0.0.0.0.0.0.0.0.0.0.0.0.0.0.0.0.0.0.0.0.0.0.0.0.0.0.0.0.0.0.9.q.y.s.h.h.h.l.4.c % . x.x.x.x.",
"x.x.x.x.o @ 3 D ` 6.0.q.0.0.0.0.0.0.0.0.0.0.0.0.0.0.0.0.0.0.0.0.0.0.0.0.0.0.0.0.0.0.0.0.0.0.0.0.q.9.e.y.a.h.h.z.4.c % . x.x.x.x.",
"x.x.x.x.o @ 3 D ` ;.0.0.0.0.0.0.0.0.0.0.0.0.0.0.0.0.0.0.0.0.0.0.0.0.0.0.0.0.0.0.0.0.0.0.0.0.0.0.0.0.0.q.y.a.h.h.4.j # . x.x.x.x.",
"x.x.x.x.o # 7 T &.7.0.q.0.0.0.0.0.0.0.0.0.0.0.0.0.0.0.0.0.0.0.0.0.0.0.0.0.0.0.0.0.0.0.0.0.0.0.0.0.0.9.0.y.s.h.f.,.j #   x.x.x.x.",
"x.x.x.x.. % y $.q.0.0.0.0.0.0.0.0.0.0.0.0.0.0.0.0.0.0.0.0.0.0.0.0.0.0.0.0.0.0.0.0.0.0.0.0.0.0.0.0.0.q.0.e.s.f.e.[ a # X x.x.x.x.",
"x.x.x.x.. % z ,.d.q.0.0.0.0.0.0.0.0.0.0.0.0.0.0.0.0.9.0.0.0.0.0.0.0.0.0.0.0.0.0.0.0.0.0.0.0.0.0.0.0.9.0.y.g.a.8.[ l 7 < x.x.x.x.",
"x.x.x.x.. % c 2.f.q.q.0.0.0.0.0.0.0.0.0.0.0.0.0.0.0.0.0.0.0.0.0.0.0.0.0.0.0.0.0.0.0.0.0.0.0.0.0.0.0.q.0.y.s.a.9.O.) T a & x.x.x.",
"x.x.x.x.. % c 4.h.e.9.q.0.0.0.0.0.0.0.0.0.0.0.0.0.0.0.0.0.0.0.0.0.0.0.0.0.0.0.0.0.0.0.0.0.0.0.0.0.0.9.0.y.s.a.&. .+. .f & o x.x.",
"x.x.x.x.. % c 4.g.e.0.9.0.0.0.0.0.0.0.0.0.0.0.0.0.0.0.0.0.0.0.0.0.0.0.0.0.0.0.0.0.0.0.0.0.0.0.0.0.0.0.0.y.g.i.o./  .o.f & o x.x.",
"x.x.x.x.  % c 4.g.i.q.0.0.0.0.0.0.0.0.0.0.0.0.0.0.0.0.0.0.0.0.0.0.0.0.0.0.0.0.0.0.0.0.0.0.0.0.0.0.0.0.0.y.g.u.} I '  .f = o x.x.",
"x.x.x.x.  # z 4.h.g.i.q.0.0.0.0.0.0.0.0.0.0.0.0.0.0.0.0.0.0.0.0.0.0.0.0.0.0.0.0.0.0.0.0.0.0.0.0.0.0.0.0.y.g.p.{ I `  .f $ o x.x.",
"x.x.x.x.@ - m 4.l.h.a.i.0.0.0.0.0.0.0.0.0.0.0.0.0.0.0.0.0.0.0.0.0.9.0.0.0.0.0.0.0.0.0.0.0.0.9.0.0.0.0.0.y.i.t.] U `  .f = O x.x.",
"x.x.x.& 3 f ~ p.l.h.h.a.i.q.0.9.0.0.0.0.0.0.0.0.0.0.0.0.0.0.0.0.0.0.0.0.0.0.0.0.0.0.0.0.0.0.0.0.0.q.q.q.9.;.| R I ' ' f & o x.x.",
"x.x.o & a [ 9.f.h.h.h.g.s.i.0.0.0.0.0.0.0.0.0.0.0.0.0.0.0.0.0.0.0.0.0.0.0.0.0.0.0.0.0.0.0.0.0.0.0.9.0.9.*._ P H I `  .f & O x.x.",
"x.x.o & f O.8.e.t.e.i.g.h.a.i.i.i.i.i.w.q.0.0.9.0.9.0.0.0.0.0.0.0.0.0.0.0.0.0.0.q.q.q.q.w.q.q.0.=.o.o.o.` I D H I '  .f & o x.x.",
"x.x.O & f  .+.5.5.&.7.a.h.h.g.g.s.s.g.a.e.0.0.0.0.0.0.0.0.0.0.9.0.0.0.0.0.0.0.0.q.q.0.0.0.q.q.9.o.^ T I I H P H I ' [ f & o x.x.",
"x.x.o & a _ X...X.X.+.q.i.s.j.h.h.j.h.g.i.y.y.y.d.y.y.y.e.q.q.q.q.w.q.0.0.q.0.;.=.o.o.*.o.*.=.o._ H H H H H P _ [ 6.&.v & o x.x.",
"x.x.o & 8 I ' ..+.X.O.5.7.i.h.j.h.l.h.h.h.s.h.s.g.g.g.g.i.e.0.q.0.0.q.q.q.q.0.*._ R ^ ^ ^ ^ R ^ I H H H H H R *.t.f.u.N = o x.x.",
"x.x.O $ 5 H / ..O.O.+...&.0.i.f.a.i.t.t.t.t.t.t.t.u.u.t.0.;.&.;.=.=.=.=.=.=.=.[ I H H H H D H H H H H H K I ` q.h.z.p.C - X x.x.",
"x.x.O $ 7 H / X.+.+.....+.5.7.7.7.&.[ ] ] { [ [ [ [ [ _ ] _ _ ( _ _ _ ^ _ _ / ^ K H H H H J H H H H H H I / o.i.l.z.s.C - X x.x.",
"x.x.O $ 7 H ) X.O.X.+.O.O.O.O.O...` U I I I L H H H H H H H H H H H H H H H H H K H H H H H J H H H H K ^  .5.e.s.g.t.N = X x.x.",
"x.x.O $ 7 D ) ..+.O.X.X.X.X...O.O. .` ` ` ^ L H H H H H H H H H H H H H H H H H H H K H H H H H H H U / ' ..5.7.0.;.} d = O x.x.",
"x.x.o & 7 D ) ..O.O.&.+.&.+.O.O.O.O...O...' R H H H H H H L H H H H L H H H H H H K H H H H H H H K /  .+.O.O.O.../ H 7 & o x.x.",
"x.x.o @ 5 D ^ ^  .9.e.e.q.5.+.O.O.+.O...' ^ I H H H H H H H H H H H H H H H H H H H H H H H H H U / ' X.O.+.O.' ^ U D 5 @ . x.x.",
"x.x.+ & 8 H I I { t.h.s.i.7.O...O.O.O.' I I H H H H H H H H H H H H H H H H H H H H K P H H J I ^  .X.X.O.O. .^ I I D 8 & + x.x.",
"x.x.2 r Z ^ / ^ [ -.;.<.;.o.) ) ` ` ' ^ I H H H H H H H H H L P H L H H H H H H H I ^ ^ / / ^ / ' +.+.+...' / I H H H h r 6 x.x.",
"o ; k (  . .....' ( ^ R R R P I I I I H H H H H H H H H H H H H H H H H H H L H H ^ ) ...... .....O.O.O. .^ I H H H J U ^ v ; O ",
"o ; S +.+.O.+.O.' / I J H J H H J J H H H H H H H H H H H H H H H H H L H H H H H R )  . .'  .'  .'  . ./ J H H H J U  .O.F ; O ",
"+ ; b O.+.O.O.O... .) I H J H H H H H H H H P H H H H H H H H H H H H H H H H H H L I ^ I U U U I I I I I I H H J / ' +...b ; O ",
"o ; v  .+.O.O.O.+.+. ./ K H J H J H H H H L H H H H H H H H L H L H H H H L H H H H H H H H H H H P H H H H I R _ o.6.6.O.b ; O ",
"O * s ^ ' O.O.O.+.O... .) I H H H J H H H H H L H H H H H H H K H H H H H P H H H H H H H H H H H H H H H H I | w.y.y.q.O.b ; O ",
"+ * 9 K ' O.O.O.X.O.O.O...( I I I K H J H H H H J J H J J K H K H H H H L H H H K H H K H H K H H H H I I L _ 9.g.j.g.q.o.b ; O ",
"O * 9 K ' O.+.O.O.O.O.O.O. .) ' ) ^ H J H H H H J J H J H H K H H H H H H H H L H H H H H H H H H H I / ` _ o.t.j.z.h.w._ g * o ",
"o * 9 K `  .O.O.O.X.O.O.O.O...O...) R H H L L I I J K K K K K K I H H H H H H H H K K H H H K L H I ^ ..O...+.y.s.h.a.=.I 9 * O ",
"+ * 9 K ^ /  .O.+.+.O.O.O.O.+.X.O.' ` / / / / / / _ / / _ / / / ^ I H H H H K H H K K H H K ^ ` / /  .X.+.+.6.8.q.<.*.[ L 9 * O ",
"o * 9 H I I / X.O.X.O.O.X.O.O.O.X.O.O...O. ...........X.....O...' U K K H K H K H H H H H I /  .........X.X.X.+...[ R I H 9 * O ",
"O * p H J K U / ` ' ' X.+.O.+.6.9.0.0.0.0.7.5.+.O.+.+.O.O.+.O.+.X.' / ^ ^ I K H K H H K H J ^ '  . . .` ` ` ' ` ` U H J H p * O ",
"O * i H J H I I I I ^  .O.O.O.0.a.f.a.s.f.y.6.O.X.O.+.O.+.O.O.O.O. .X. .' / K H K H H H H K J I I I I I I I I L I J H J H p * O ",
"O * 7 g D H J J H H I / ' '  .=.w.t.w.t.w.<.o.' ' ' '  .'  . . .'  . . .' ^ K J H H K H H H H H H H H H H H H H H H J I H 9 * O ",
"x.x.* > p D K K H H K I U U R _ _ _ _ _ _ _ ^ U U U ^ I ^ I I I U U U U U I K K K H K H H H H H H H H H H H H H H H H I H 9 * O ",
"x.x.o $ 8 D K K H H H H H H H H H H H H H H H H H H H H H H H H H H H H H H H H H K H H J H H H H H H H H H H H H J J D b 8 * O ",
"x.x.o # 8 H I K H H H H H H H H J D H H H H H H H H H H H H H H H H H H H H K K H H H K H H K K H H H H H H H H H I J 9 3 ; x.x.",
"x.x.O & 7 Z D H H H H K H H H K H H K K H H J H H H H K K H H H H H H H K K H H H H K K H K H H H P J H H H H J H H A 5 $ O x.x.",
"x.x.x.x.: 3 s H L K H K H K H H K H H H H K H H K K H H H H K K H H H H H H H K K H H H H H K H H H H H H H I J H s 3 : x.x.x.x.",
"x.x.x.x.+ & 3 Z H H K H K H K H K H H K H H K K H H K H K H H H H H H H H H H K K H H H K K H H H H H H H H H H b 3 $ + x.x.x.x.",
"x.x.x.x.x.+ : 7 g A J K H H K H H H K H K H H H H J H H K H K H H H J P K K H H H H K K H H H K H J H H P J D s 5 ; + x.x.x.x.x.",
"x.x.x.x.x.x.x.& 3 h K L H H K H H K H H H K K H H H K H H K H H H K K H H H H K K H H H H H H P H H H J P J A 3 & x.x.x.x.x.x.x.",
"x.x.x.x.x.x.x.o : h I L K H H J H K H K H H H H H H K H H K H K H H H H H K K H H H K H K K H H P H H H J I h ; O x.x.x.x.x.x.x.",
"x.x.x.x.x.x.x.x.x.x.x.x.x.x.x.x.x.x.x.x.x.x.x.x.x.x.x.x.x.x.x.x.x.x.x.x.x.x.x.x.x.x.x.x.x.x.x.x.x.x.x.x.x.x.x.x.x.x.x.x.x.x.x.x.",
"x.x.x.x.x.x.x.x.x.x.x.x.x.x.x.x.x.x.x.x.x.x.x.x.x.x.x.x.x.x.x.x.x.x.x.x.x.x.x.x.x.x.x.x.x.x.x.x.x.x.x.x.x.x.x.x.x.x.x.x.x.x.x.x."
};
