/* XPM */
static char *result[] = {
/* columns rows colors chars-per-pixel */
"64 64 97 2 ",
"   c #000D14",
".  c #041217",
"X  c #071518",
"o  c #0C1618",
"O  c #0F191A",
"+  c #141B1B",
"@  c #1A1E1D",
"#  c #23221E",
"$  c #2F2720",
"%  c #2D2B22",
"&  c #302720",
"*  c #332E24",
"=  c #373125",
"-  c #422F23",
";  c #433024",
":  c #4D3526",
">  c #453428",
",  c #5B3C29",
"<  c #54422D",
"1  c #5A462E",
"2  c #78492F",
"3  c #604930",
"4  c #684F33",
"5  c #6B5133",
"6  c #755535",
"7  c #775837",
"8  c #7A5B38",
"9  c #844D30",
"0  c #865132",
"q  c #8B5232",
"w  c #955835",
"e  c #9F5B36",
"r  c #995D3E",
"t  c #A05C38",
"y  c #82603A",
"u  c #8A643C",
"i  c #8F693E",
"p  c #9E613F",
"a  c #916A3F",
"s  c #A7633F",
"d  c #C76D3E",
"f  c #9A5F40",
"g  c #9F7242",
"h  c #A16240",
"j  c #A86540",
"k  c #AC6A43",
"l  c #B16740",
"z  c #B46C43",
"x  c #BD6D42",
"c  c #BA7844",
"v  c #B97648",
"b  c #BB7849",
"n  c #C66E41",
"m  c #C86F42",
"M  c #C47243",
"N  c #C97343",
"B  c #C37847",
"V  c #CC7947",
"C  c #C37948",
"Z  c #CE7D49",
"A  c #D37443",
"S  c #DC7742",
"D  c #D57845",
"F  c #DE7A43",
"G  c #E37741",
"H  c #E67C44",
"J  c #EA7E45",
"K  c #CA8C4E",
"L  c #D2844C",
"P  c #D4894F",
"I  c #D69452",
"U  c #E18147",
"Y  c #EA8147",
"T  c #E78348",
"R  c #EB8549",
"E  c #E58B4C",
"W  c #EE8B4C",
"Q  c #F08649",
"!  c #F18C4C",
"~  c #F1914F",
"^  c #E39553",
"/  c #E99752",
"(  c #E69C56",
")  c #ED9A53",
"_  c #F39551",
"`  c #F89752",
"'  c #F69B54",
"]  c #F99F56",
"[  c #EDA258",
"{  c #F0A057",
"}  c #F9A157",
"|  c #F4A65A",
" . c #FBA559",
".. c #F6A85B",
"X. c #FFAD5D",
"o. c #FFB15E",
"O. c None",
/* pixels */
"O.O.O.O.O.O.O.O.O.O.O.O.O.O.+ + + O.O.O.O.O.+ + + O.O.O.O.O.O.O.O.O.O.O.+ + + O.O.O.O.O.O.O.O.+ + + O.O.O.O.O.O.O.O.O.O.O.O.O.O.",
"O.O.O.O.O.O.O.O.O.O.. .   * f g 7 o . . . O 8 g f % . X X X X X . .   + y g y %   . . . . . X 7 g a *   X X O.O.O.O.O.O.O.O.O.O.",
"O.O.O.O.O.O.O.O.O.= < < < 6 ( o.K 1 < < < 1 K o.( 5 < < : : : : < < < 3 L X.( 5 < < < < < < 1 K o._ 7 : < < = O.O.O.O.O.O.O.O.O.",
"O.O.O.O.O.O.O.% @ 5 [ ..| { R } ..| | | | | ..] R ' ..( H S F U { ....| E _ X...| ..| | | | | X.' E { ....[ 5 @ # O.O.O.O.O.O.O.",
"O.O.O.O.O.O.& e c I X.o.o.X.} W _ o.o.X.o.X._ ~ } X.o.X.} Q ! } X.o.o.o. ._ W X.o.X.o.o.X.o.X._ ~ } o.o.o.X.I c e & O.O.O.O.O.O.",
"O.O.O.O.O.; 0 W X.o.X.X.X.X.o.' ` X.X.X.X.X._ ' X.X.} ' X.' ' o.X.X.X.X.X.} _  .o.X.X.X.X.X.X.' ~ '  .o.X.X.o. .E 0 - O.O.O.O.O.",
"O.O.O.O.& 9 R  .o.X.X.X.X.X.X.X.X.X.X.X.X.X.X.X.X.X._ W } X.X.X.X.X.X.X.X.X.X.X.X.X.X.X.X.X.X.o.' E '  .X.X.X.o. .! 0 & O.O.O.O.",
"O.O.O.# e S R  .X.X.X.X.X.X.X.X.X.X.X.X.X.X.X.X.X.X.X.' W ] X.X.X.X.X.X.X.X.X.X.X.X.X.X.X.X.X.X.X. .Q ' X.X.X.X.X.X.E t # O.O.O.",
"O.O.; w E } ' X.X.X.X.X.X.X.X.X.X.X.X.X.X.X.X.X.X.X.X.X.'  .o.X.X.X.X.X.X.X.X.X.X.X.X.X.X.X.X.X.X.X.'  .X.X.X.X.X.X. .E w ; O.O.",
"O.. : H `  .X.X.X.X.X.X.X.X.X.X.X.X.X.X.X.X.X.X.X.X.X.X.X.X.X.X.X.X.X.X.X.X.X.X.X.X.X.X.X.X.X.X.X.X.o.X.X.X.X.X.X.X. .` H : . O.",
"O.@ , S Y ~ X.X.X.X.X.X.X. .X.X.X.X.X.X.X.X.X.X.X.X.X.X.X.X.X.X.X.X.X. .X.X.X.X.X.X.X.X.X.X.X.X.X.X.X.X.X.X.X.X.X.X._ Y S , @ O.",
"+ 2 d G ' X.X.X.X.X.X.o.' ~  .o.X.X.X.X.X.X.X.X.X.X.X.X.X.X.X.X.X.o. .W  .X.X.X.X.X.X.X.X.X.X.X.X.X.X.X.X.X.X.X.X.W _ _ H d 2 + ",
"+ q ! _ X.o.X.X.X.X. .' ~ ~ X.X.X.X.X.X.X.X.X.X.X.X.X.X.X.X.X.X.X.' ~ ~  .o.X.X.X.X.X.X.X.X.X.X.X.X.X.X.X.X.X. ._ ~  .X._ ! q + ",
"+ q ! }  . .X.X.X.o.X.~ ' X.X.X.X.o.X.X.X.X.X.X.X.X.X.X.X.X.X.X.X._ ~ X.X.X.X.X.X.X.X.X.X.X.X.X.X.X.X.X.X.X.o.' W  . .}  .Q q + ",
"+ q Y Y Y ~ X.X.X.X.X. . .X.X.X.X.X.X.X.X.X.X.X.X.X.X.X.X.X.X.X.X. .X.X.X.X.X.X.X.X.X.X.X.X.X.X.X.X.X.X.X.X.X.X. .X._ Y Y Y q + ",
"+ q J H ~  .X.X.X.X.X.o.o.X.X.X.X.X.X.X.X.X.X.X.X.X.X.X.X.X.X.X.X.X.o.X.X.X.X.X.X.X.X.X.X.X.X.X.X.X.X.X.X.X.X.X.X.o. .~ H J q + ",
"+ q Q !  .o.X.X.X.X.X.X.X.X.X.X.X.X.X.X.X.X.X.X.X.X.X.X.X.X.X.X.X.X.X.X.X.X.X.X.X.X.X.X.X.X.X.X.X.X.X.X.X.X.X.X.X.X.o. ._ R q + ",
"+ q !  .X.X.X.X.X.X.X.X.X.o.X.X.X.X.X.X.X.X.X.X.X.X.X.X.X.X.X.X.X.X.X.X.X.X.X.X.X.X.X.X.X.X.X.X.X.X.X.X.X.X.X.X.X.X.X.X.} ! q + ",
"+ q J R } o.X.X.X.X.X.X.X.X.X.X.X.X.X.X.X.X.o.X.X.X.X.X.X.X.X.X.X.X.X.X.X.X.X.X.X.X.X.X.X.X.X.X.X.X.X.X.X.X.X.X.X.X.o. .! J q + ",
"+ q Q `  .X.X.X.X.X.X.X.X.X.X.X.X.X.X.X.X.X.X.X.X.X.X.X.X.o.X.X.X.X.X.X.X.X.X.X.X.X.X.X.X.X.X.X.X.X.X.X.X.X.X.X.X.X.X. ._ Q q + ",
"+ q ! } X.X.X.X.X.X.X.X.X.X.X.X.X.X.X.X.X.X.X.X.X.X.X.X.X.X.X.X.X.X.X.X.X.X.X.X.X.X.o.X.X.X.X.X.X.X.X.X.X.X.X.X.X.X.X.X.} ! q + ",
"+ q Y Y } o.X.X.X.X.X.X.X.X.X.X.X.X.X.X.X.X.X.X.X.X.X.X.X.X.X.X.X.o.X.X.X.X.X.X.X.X.X.X.X.X.X.X.X.X.X.X.X.X.X.X.X.X.X.] Y J q + ",
"+ q J H R ' X.X.X.X.X.X.X.X.X.X.X.X.X.X.X.X.X.X.X.X.X.X.X.X.X.X.X.X.X.X.X.X.X.X.X.X.X.X.X.X.o.X.X.X.X.X.X.o.X.X.X.X.' R J J q + ",
"+ q Y H R ' X.X.X.X.X.X.X.X.X.X.X.o.X.X.X.X.X.X.X.X.X.X.X.X.X.X.X.X.X.X.X.X.X.X.X.X.X.X.X.X.X.X.X.X.X.X.X.X.X.X.X.X.' R H J q + ",
"+ q Y R } X.X.X.X.X.X.X.X.X.X.X.X.X.X.X.X.X.X.X.X.X.X.X.X.X.X.X.X.X.X.X.X.X.X.X.X.X.X.X.X.X.X.X.X.X.X.X.X.X.X.X.X.X.X.} Y J q + ",
"+ q ! } X.X.X.X.X.X.X.X.X.X.X.o.X.X.X.X.X.X.X.X.X.X.X.X.X.X.X.X.X.X.X.X.X.X.X.X.X.X.X.X.X.X.X.X.X.X.X.X.X.X.X.X.X.X.X.X. .! q + ",
"+ q Q ~ _ ' X.X.X.X.X.X.X.X.X.X.X.X.X.X.X.X.X.X.X.X.o.o.X.X.X.X.X.X.X.X.X.X.X.X.X.X.X.X.X.X.X.X.X.o.X.X.X.X.X.X.X.X.' _ _ Q q + ",
"+ q J H G _ X.X.X.X.X.X.X.X.X.X.X.X.X.X.X.X.X.X.X.o. .] X.X.X.X.X.X.X.X.X.X.X.X.X.X.X.X.X.X.X.X. .} X.X.X.o.X.X.X.X.' R H J q + ",
"+ q J J H ~ X.X.X.X.X.X.X.X.X.X.X.X.X.X.X.X.X.X.X.X._ W  .o.X.X.X.X.X.X.X.X.X.X.X.X.X.X.X.X.X.o.' R } X.X.X.X.X.X.X.X.' J J q + ",
"+ q ! ] } ~ ! X.o.X.X.X.X.X.X.X.X.X.X.X.X.X.X.X.X.X. ._ W } o.X.X.X.X.X.X.X.X.X.X.X.X.X.X.X.X.X.X.' W ' X.X.X.X.X.X.X.X.] ! q + ",
"+ q Q ` X.} _  .X.X.X.X.X.X.X.X.X.X.X.X.X.X.X.X.X.X.o. ._ } o.X.X.X.X.X.X.X.X.X.X.X.X.X.X.X.X.X.o.X._ ' X.X.X.X.X.X.X.X.' Q q + ",
"+ q Y Q } X.X.X.X.X.X.X.X.X.X.X.X.X.X.X.o.X.X.X.X.X.X.X.X.X.X.X.X.X.o.X.X.X.X.X.X.X.X.X.X.X.X.X.X.X.X.o.X.X.X.X.X.X.o.} R J q + ",
"+ q !  .X.X.X.X.X.X.X.X.X.X.X.X.X.X.X.X.X.X.X.X.X.X.X.X.X.X.X.X.X.X.X.X.X.X.X.X.X.X.X.X.X.X.X.X.X.X.X.X.X.X.X.X.X.X.X... .! q + ",
"+ q ! o.o.X.X.X.X.X.X.o.' ~ X.X.X.X.X.X.X.X.o.X.X.X.X.X.X.o.X.X.X.o. .~  .o.X.X.X.X.X.X.X.X.X.X.X.X.X.X.X.X.X.o.X._ ] X.o.! q + ",
"+ q ! ] X.X.X.X.X.X.X.] ~ ~ X.X.X.X.X.X.X.X.X.X.X.X.X.X.X.X.X.X.X. ._ ~  .X.X.X.X.X.X.X.X.X.X.X.X.X.X.X.X.X.X...` W ' X.] ! q + ",
"+ q J J ' X.X.X.X.X.X.R _ X.X.X.X.X.X.X.X.X.X.X.X.X.X.X.X.X.X.X.X.~ W  .X.X.X.X.X.X.X.o.X.X.X.X.X.X.X.X.X.X.X.` R  .o.] J J q + ",
"+ q J H R ' X.X.X.X.X.]  .o.X.X.X.X.X.X.X.X.X.X.X.X.X.X.X.X.X.X.X. . .X.X.X.X.X.X.X.X.X.X.X.X.X.X.X.X.o.X.X.X.X. ...` R H J q + ",
"+ q J H R ] X.X.X.X.X.o.X.X.X.X.X.X.X.X.X.X.X.X.X.X.X.X.X.X.X.X.X.X.X.X.X.X.X.X.X.X.X.X.X.X.X.X.X.X.X.X.X.X.X.X.o.X.] W H J q + ",
"+ q J J ] o.X.X.X.X.X.X.X.X.X.o.X.X.X.X.X.X.X.X.X.X.X.X.X.X.X.X.X.X.X.X.X.X.X.X.X.X.X.X.X.X.X.X.X.X.X.X.X.X.X.X.X.X.X.] J J q + ",
"+ q J J ] o.X.X.X.X.X.X.X.X.X.X.X.X.X.X.X.X.X.X.X.X.X.X.X.X.X.X.X.X.X.X.X.X.X.X.X.X.X.X.X.X.X.X.X.X.X.X.X.X.X.X.X.X.o. .J J q + ",
"+ q J J W ' X.X.X.X.X.X.X.X.X.X.X.X.X.X.X.X.X.o.X.X.X.X.X.X.X.X.X.X.X.X.X.X.X.X.X.X.X.X.X.X.X.X.X.X.X.X.X.X.X.o.X.X.' R H R q + ",
"+ q J H J ' X.X.X.X.X.X.X.X.X.X.X.X.X.X.X.X.X.X.X.X.X.X.X.X.X.X.X.X.X.X.X.X.X.X.X.X.X.X.X.X.X.X.X.X.X.X.X.X.X.X.X.X.` R H J q + ",
"+ q J R ] X.X.X.X.X.X.X.X.X.X.X.X.X.X.X.X.X.X.X.X.X.X.X.X.X.X.X.X.X.X.X.X.X.X.X.X.X.X.X.X.X.X.X.X.X.X.X.X.X.X.X.X.X.o.] R J q + ",
"+ q !  .X.o.X.X.X.X.X.X.X.X.X.X.X.X.X.X.X.X.X.X.X.X.X.X.X.X.X.X.X.X.X.X.X.X.X.X.X.X.X.X.X.X.X.X.X.X.X.X.X.X.X.X.X.X.X.X.] ! q + ",
"+ q Q _ ..X.X.X.X.X.X.X.X.X.X.X.X.X.X.X.X.X.X.X.X.X.X.X.X.X.X.X.X.X.X.X.X.X.X.X.X.X.X.X.X.X.X.X.X.X.X.X.X.X.X.X.X.X.X. ._ Q q + ",
"+ q J W ] o.X.X.X.X.X.X.X.X.X.X.X.X.X.X.X.X.X.X.X.X.X.X.X.X.X.X.X.X.X.X.X.X.X.X.X.X.X.X.X.o.X.X.X.X.X.X.X.X.X.X.X.X.o. .W J q + ",
"+ q !  .X.X.X.X.X.X.X.X.X.X.X.X.X.X.X.X.X.X.X.X.X.X.X.X.X.X.X.X.X.X.X.X.o.X.X.X.X.X.X.X.X.X.X.X.X.X.X.X.X.X.X.X.X.X.X.X. .! q + ",
"+ q R W  .X.X.o.X.o.X.X.X.X.X.X.X.X.X.X.X.X.X.X.X.X.X.X.X.X.X.X.X.X.X.X.X.X.X.X.X.X.X.X.X.X.X.X.X.X.X.X.X.X.X.X.X.X.X. .! R q O ",
"> t J !  .o.X.'  .X.X.X.X.X.X.X.X.X.X.X.X.X.X.X.X.X.X.o.X.X.X.X.X.X.X.X.X.X.X.X.X.X.X.X.X.X.X.X.X.X.X.X.X.X.o. .' X.o. .W R t > ",
"f m W X.X. .] W ' o.X.X.X.X.X.X.X.X.X.X.X.X.X.X.X.X. .X.X.X.X.X.X.X.X.X.X.X.X.X.X.X.X.X.X.X.X.X.X.X.X.X.X.X.X.' R ] X.X. .W m f ",
"h m ! X./ Y R ]  .X.X.X.X.X.X.X.X.X.X.X.X.X.X.X.X.X._ ~ X.X.X.X.X.X.X.X.X.X.X.X.X.X.X.X.X.X.X.X.] R  .X.X.X.X.X.] W ' o.X.! m h ",
"h m R W J H Y X.o.o.X.X.X.X.X.X.X.X.X.X.X.X.X.X.X.X.' ~ _  .X.X.X.X.X.X.X.X.X.X.X.X.X.X.X.X.X.X. ._ ~ ] X.X.X.o.X._ _ _ _ R m h ",
"h m H H H J ~  . . .X.X.X.o.X.X.X.X.X.X.X.X.X.X.o.X.X. .W ] o.X.X.X.X.X.X.X.X.X.X.X.X.X.X.X.X.X.o...W _ o.X.}  .X.X._ G H H m h ",
"h m H H H ~  .X.~ W X.X.X.X.X.X.X.X.X.X.X.X.X.X.X.X.X.X...X.X.X.X.X.X.X.X.o.X.X.X.X.X.X.X.X.X.X.X.X.X.X.X.X.~ ~ X.X._ H H H N h ",
"h m J H H Y W W _  .o.o.o.o.X._ W W  .o.X.X.o.] W W ' o.X.X.X.o.o.o.X.o.o.] W W } X.X.X.X. .W W _ o.o.X.X.X.} _ W W Y H G J m h ",
"h N J H H H H H ~ ' _ X. .' _ R J ~ ..X.o.X.o. .W H W ] X.o. .` _  .X._ ' W H W } o.o.X.X.X._ H R '  .o.X.' ' ~ H G H H J J m h ",
"h n H T H H H H H H J ] _ T J H W  .X.X. . . . .] R G W  .X._ H H _ ] Y J H T }  .X. .X.X. . .W H Y  .X.] Y H H H H H H H F n h ",
"O.h C ' W H H H H H H Y _ ] H H H W  .' R R R T R J G W X.~ J H J J W ] R H J R R Y R  .' R R Y H T } ' J H H H H H H H H x j O.",
"O.f b X.W R _ H W ~ H G T ~ H H H H ~ R G H W ~ H G H T W Y G H H W _ / J H H H G H H ! R G H H G H W R T _ R H H H W _ H l f O.",
"O.O.v ^ Y _  .T ' ] J R T J R T J R H J R J ] ' J R T J R J J W J ' } J T T J R Y J E Y Y R H R R H R T R  .W J R J ' } D l O.O.",
"O.O.O.k A _ } T ' ] Y ] _ R } W W  .R _ } J ] _ T  .~ R  .W ~ } Y ' ] J ] _ T } ! W  .R _ ] R ' ' Y } _ W  .W ! } T _ ( k O.O.O.",
"O.O.O.O.z z B H ' ] R  ._ W X.~ ! X.W _  .R ] ] R  ._ W  .! _  .W ' } R  .' R X.! ! X.R _  .R ' ' R  ._ R X.W ~  .B z v O.O.O.O.",
"O.O.O.O.O.f j m L L N P Z N P V V P V Z P N L L N P Z N P V Z P N Z L N L L N P Z V P N Z P N L L N P Z V P V Z P k f O.O.O.O.O.",
"O.O.O.O.O.O.O.h h h h h h h h h h h h h h h h h h h h h h h h h h h h h h h h h h h h h h h h h h h h h h h h h h O.O.O.O.O.O.O."
};
